<svg width="1440" height="1061" viewBox="0 0 1440 1061" fill="none" xmlns="http://www.w3.org/2000/svg">
<g clip-path="url(#clip0_88_1817)">
<rect width="1440" height="1061" fill="url(#paint0_linear_88_1817)"/>
<path d="M1440 98.6139V88.6455C1434.24 91.8273 1428.19 95.0091 1422.44 98.1887C1408.33 105.824 1378.67 119.609 1378.67 119.609C1378.38 119.609 1378.38 119.609 1378.09 119.609C1377.8 119.397 1334.61 93.5239 1312.73 81.2242C1315.9 74.226 1327.7 37.113 1339.22 0.211544H1326.84C1315.9 33.5081 1305.24 65.9542 1301.79 74.6491C1300.35 74.6491 1204.75 19.5095 1170.77 0.211544H1141.69C1136.22 3.81642 1130.75 7.635 1125.28 11.2399C1103.97 25.4479 1045.52 63.1976 1045.52 63.1976C1045.52 63.1976 1031.12 19.0864 1027.67 8.69488C1026.8 5.72463 1025.94 2.96809 1024.79 0H1013.84C1021.91 24.388 1029.97 49.2012 1034.86 63.6207C1014.13 63.8344 809.406 50.4726 793.28 50.0495C824.954 34.1427 855.189 16.9645 885.423 0H867.572C838.201 16.1162 808.254 31.5977 778.884 47.9276C775.428 32.023 772.26 15.9046 769.095 0H758.441C768.517 47.7161 792.706 160.538 801.92 209.528C783.204 203.589 764.488 198.076 745.771 192.561C693.655 177.505 640.671 163.083 586.538 152.48C628.003 110.065 668.602 67.2256 710.642 25.0248C718.992 16.753 727.342 8.48334 735.692 0.211544H722.447C715.249 7.4213 708.051 14.6332 700.853 21.843C675.8 47.0793 650.463 72.3156 625.987 97.7656C616.485 64.6828 604.967 32.2345 592.587 0H581.643C584.524 7.20976 587.402 14.4195 589.993 21.843C593.739 32.023 597.769 42.6261 601.224 53.2292C562.927 47.2908 524.919 40.7179 486.912 33.2944C477.985 22.0545 468.77 11.0283 459.268 0H445.446C454.948 11.2399 464.45 22.4798 473.955 33.7196C453.222 46.4425 433.353 59.5928 413.198 72.7408C394.482 85.0406 375.191 97.1288 357.626 110.277C334.589 91.1905 311.266 71.8925 286.216 54.5027C288.229 52.5945 290.533 50.6842 292.549 48.776C310.691 32.4461 328.83 16.3299 346.969 0H331.999C316.16 14.4195 300.612 28.6296 284.777 43.0513C266.06 59.8043 247.631 76.5573 229.202 93.3124C225.172 78.8907 213.941 37.7476 203.287 0H192.059C203.574 41.7777 216.822 89.2823 220.277 101.582C202.713 117.7 186.3 132.12 168.735 146.967C162.689 133.605 134.471 66.8025 127.847 50.8979C120.649 33.9312 113.738 16.9645 106.827 0H95.0213C99.0542 9.9663 103.371 19.7232 107.691 29.6895C80.9121 44.3227 54.1329 58.956 27.3566 73.8007C18.4292 78.6792 9.50184 83.5555 0.577379 88.6455V98.6139C10.0792 93.3124 19.5811 88.2224 29.0829 82.9208C56.1493 67.8624 83.7932 53.0176 110.86 37.9613C113.163 43.2629 115.467 48.776 117.768 54.0775C124.679 70.6189 154.049 138.695 160.672 151.843C129.576 166.476 91.5658 182.595 58.453 198.076C38.8719 207.194 19.2938 216.314 0.287224 225.858V236.461C11.231 230.948 22.1719 225.432 33.403 219.919C51.2548 249.397 71.4103 278.238 91.853 306.868C71.1231 335.711 48.0866 363.493 25.053 391.486C16.7 385.972 8.64017 380.457 0.287224 374.733V385.972C8.06279 391.274 16.1256 396.576 23.9011 401.877C43.4793 414.814 63.3475 427.327 83.2158 439.838C103.371 452.35 123.24 465.286 144.837 476.315C144.837 476.526 144.837 476.526 144.547 476.74C131.877 473.981 71.6975 459.35 0 441.747V450.018C67.9548 466.771 123.527 480.556 134.758 482.678C126.408 487.554 56.7267 516.609 0 540.361V549.904C51.2548 528.698 115.754 501.339 139.365 489.676C120.936 516.396 103.371 543.542 84.6549 570.05C63.6348 599.953 41.4658 629.22 19.5811 658.698C19.0037 659.546 18.7164 660.394 19.0037 661.031C12.6701 661.031 6.33651 661.243 0 661.243V669.089C82.3512 667.816 188.891 666.121 193.785 666.333C168.735 678.633 72.2749 728.045 0.287224 765.37V775.125C23.0365 763.25 48.6639 750.102 74.2884 736.952C75.7304 781.7 76.5921 826.448 77.1694 871.193C77.1694 875.86 77.1694 880.314 77.1694 884.978C60.7567 880.737 31.961 874.164 0.287224 867.377V876.497C31.6738 883.282 60.4694 889.434 77.4567 893.25C77.4567 930.786 76.8822 968.536 78.034 1006.07C57.3012 992.924 28.2183 975.323 0.287224 958.568V968.748C36.2811 990.591 70.5457 1011.59 76.8822 1016.04C76.8822 1016.04 77.1694 1016.25 77.4567 1016.25C77.4567 1016.68 77.4567 1017.31 77.7439 1017.74C83.2158 1031.95 89.2622 1046.37 95.0213 1060.57H106.827C100.493 1045.52 94.1567 1030.46 87.5359 1015.4C87.5359 1015.19 87.5359 1015.19 87.2457 1014.98C87.2457 1014.77 87.5359 1014.56 87.5359 1014.34C116.616 1007.77 145.699 1002.04 175.933 998.651C178.812 1010.1 185.148 1034.28 192.346 1060.79H203.574C196.376 1034.49 189.465 1009.89 185.723 996.954C186.013 996.529 186.3 996.317 186.587 995.894C208.759 971.292 266.922 901.308 281.031 884.13C299.173 905.338 377.782 989.319 395.633 1004.16C374.039 1022.83 353.019 1041.91 331.999 1060.79H346.972C365.686 1044.03 384.402 1027.28 402.544 1010.31C410.894 1019.22 435.944 1049.33 439.687 1054C441.704 1056.33 443.433 1058.67 445.446 1060.79H459.268C456.39 1057.61 453.509 1054.42 450.631 1051.03C446.024 1045.94 419.244 1012.44 408.878 1002.68C408.591 1002.26 408.303 1001.83 407.726 1001.62C427.882 960.053 444.872 917.427 464.163 875.649C473.664 855.077 483.456 834.717 493.533 814.359C501.596 858.682 518.296 902.37 534.999 945.208C549.969 983.806 566.382 1022.19 581.356 1060.79H592.297C585.386 1043.19 578.478 1025.8 571.277 1008.19C571.567 1007.98 571.567 1007.56 571.854 1007.35C593.739 963.023 616.772 919.76 644.416 877.346C672.057 890.494 699.988 903.43 728.206 915.941C761.319 930.363 795.009 944.148 829.561 956.236C792.706 990.593 756.999 1025.58 721.873 1060.79H735.117C741.451 1054.64 747.787 1048.28 754.121 1042.13C754.986 1045.73 756.138 1052.31 758.151 1060.79H768.808C766.791 1051.67 765.062 1042.34 763.048 1033.22C789.25 1007.56 812.861 984.018 839.353 958.781C845.687 959.416 959.712 990.593 981.019 995.894C949.058 1014.13 917.672 1033.01 885.423 1051.03C879.377 1054.42 873.328 1057.61 867.572 1061H885.423C887.44 1059.94 889.453 1058.67 891.47 1057.61C925.734 1038.52 960.576 1019.43 993.402 999.074C996.858 1009.89 1005.21 1035.13 1013.56 1061H1024.21C1019.03 1044.46 1013.84 1027.92 1009.52 1014.56C1007.51 1008.41 1002.9 995.681 1003.19 995.257C1003.19 995.257 1027.67 936.513 1038.89 909.155C1044.08 896.643 1048.97 884.344 1053.87 871.83C1071.72 900.674 1139.96 1020.49 1155.51 1051.88C1150.91 1054.85 1146.3 1058.03 1141.69 1061H1170.77C1168.18 1059.51 1165.88 1058.24 1164.15 1057.18C1165.59 1056.76 1350.45 940.329 1372.05 928.03C1372.62 928.455 1342.68 1014.56 1337.2 1031.31C1334.04 1040.85 1330.87 1051.03 1327.7 1061H1339.51C1344.11 1046.16 1349.01 1031.31 1353.04 1018.37C1357.65 1003.32 1375.5 948.601 1381.83 932.697C1383.56 933.756 1412.07 952.206 1419.84 956.873C1426.47 960.901 1433.38 965.143 1440 969.173V958.568C1433.66 954.751 1427.33 950.935 1421.28 947.116C1417.54 944.783 1396.23 932.271 1375.21 915.73C1342.96 890.282 1313.88 861.65 1300.92 847.442C1323.67 851.472 1385.87 864.62 1440 876.283V867.377C1392.49 857.197 1338.93 846.382 1311.29 841.716C1322.52 836.414 1392.78 799.301 1409.48 790.606C1418.69 785.73 1429.06 780.428 1440 774.913V765.158C1427.33 771.733 1415.24 777.883 1404.58 783.608C1394.79 788.698 1349.01 812.026 1335.76 819.236C1325.69 824.751 1314.74 829.627 1304.95 835.354C1321.37 790.606 1361.68 689.872 1368.02 670.574C1385.58 670.149 1411.2 669.726 1440 669.301V661.666C1412.65 662.091 1388.17 662.514 1370.89 663.362C1375.21 652.971 1379.24 642.368 1383.56 631.976C1393.07 608.437 1404.01 584.897 1412.93 561.144C1421.28 557.75 1430.5 553.934 1440 549.904V540.361C1431.07 544.179 1422.72 547.784 1414.66 550.964C1414.09 550.541 1309.85 431.992 1288.26 412.694C1337.78 424.568 1392.2 437.93 1440 449.807V441.535C1387.02 428.599 1327.7 414.177 1275.87 401.666C1275.87 401.666 1275.87 401.666 1275.87 401.454C1274.15 378.549 1272.7 355.646 1271.55 332.741C1270.4 309.838 1269.54 287.147 1268.1 264.242C1280.48 275.059 1395.37 354.798 1409.77 364.978C1419.84 371.976 1429.63 378.761 1440 385.547V374.307C1430.79 367.946 1421.57 361.584 1412.36 355.009C1394.5 342.498 1287.39 269.12 1273.57 257.032C1311 257.032 1405.16 253.85 1405.74 253.639C1406.02 253.85 1423.3 244.096 1429.06 241.339C1432.51 239.642 1436.26 237.734 1439.71 236.038V225.432C1434.82 227.766 1429.92 230.311 1425.31 232.644C1419.55 235.612 1413.8 238.583 1408.04 241.762C1407.75 240.066 1407.75 238.369 1407.46 237.097C1406.31 232.007 1405.16 226.917 1404.01 221.616C1401.7 211.013 1399.4 200.408 1397.1 189.804C1392.49 168.385 1388.46 148.238 1382.99 127.032C1382.99 127.032 1410.05 114.307 1422.72 107.52C1428.48 104.764 1434.24 101.582 1440 98.6139ZM1156.38 1.05988C1175.38 12.5113 1228.07 43.0513 1277.31 71.4673C1205.61 68.2876 1134.2 64.4691 1062.51 62.1378C1092.17 41.7777 1152.63 3.39333 1156.38 1.05988ZM1049.26 77.4056C1064.23 93.3124 1081.22 108.369 1097.64 123.425C1110.59 135.513 1124.13 147.178 1137.37 159.055C1137.08 159.055 1043.79 187.259 1025.94 192.561C1036.59 154.6 1044.94 116.004 1049.26 77.4056ZM1149.46 169.447C1183.15 198.288 1217.42 226.706 1254.28 253.427C1238.15 271.877 1166.74 342.921 1147.74 360.522C1148.31 330.196 1149.18 299.87 1149.46 269.543C1149.46 236.249 1150.62 202.741 1149.46 169.447ZM1257.44 263.819C1257.44 307.082 1261.19 350.345 1264.07 393.607C1264.07 395.516 1264.35 397.212 1264.35 399.121C1208.2 385.761 1162.71 375.369 1147.45 373.036C1147.45 373.036 1147.45 373.036 1147.45 372.824C1166.17 355.858 1240.17 283.54 1257.44 263.819ZM1261.19 406.33C1224.33 443.655 1152.63 524.244 1134.78 542.269C1135.07 533.788 1135.07 527.638 1135.65 519.154C1136.8 495.401 1138.52 471.65 1140.54 447.896C1142.56 425.63 1145.72 403.151 1147.16 380.671C1169.62 384.913 1211.66 394.667 1261.19 406.33ZM976.699 308.142C968.926 328.713 961.728 349.283 957.408 370.279C950.497 351.404 942.147 332.741 933.797 314.291C924.008 293.508 914.216 272.088 901.546 251.942C902.988 252.365 975.837 275.907 987.065 279.512C983.61 289.267 980.445 298.173 976.699 308.142ZM990.808 300.718C992.825 295.205 995.128 289.692 997.145 284.177C1041.49 314.715 1131.33 375.792 1131.33 375.792C1125.85 380.882 972.095 550.752 955.105 576.414C955.969 546.087 956.834 515.761 958.56 485.646C960.286 453.623 964.894 388.941 964.894 388.729C968.926 358.403 979.58 329.561 990.808 300.718ZM923.431 316.2C933.797 338.468 942.434 361.159 951.075 383.851C877.648 394.667 804.224 405.059 731.085 416.722C757.864 390.426 782.917 363.281 808.831 336.56C836.185 308.353 863.251 280.36 890.605 252.154C901.546 273.362 913.355 294.568 923.431 316.2ZM954.24 391.274C947.329 451.078 945.025 511.308 943.873 571.324C909.899 546.51 769.669 448.11 732.526 424.357C806.815 414.391 880.529 402.514 954.24 391.274ZM945.025 583.2C889.453 612.89 834.746 643.853 780.323 674.602C771.686 619.04 759.88 563.689 746.636 508.126C740.586 482.464 735.692 456.38 727.629 431.144C759.303 454.046 914.506 562.204 945.025 583.2ZM756.425 606.74C716.688 620.313 596.617 657.213 564.943 666.967C592.297 628.371 614.756 593.378 640.383 553.934C666.588 513.639 695.094 468.045 717.84 431.992C725.328 464.438 757.289 606.315 756.425 606.74ZM427.307 430.72C448.327 390 469.057 349.283 491.806 309.201C505.051 285.873 518.873 262.545 532.695 239.429C547.091 216.103 562.352 192.986 576.749 169.658C589.131 209.951 606.983 249.82 627.139 288.418C626.852 288.63 441.129 419.481 427.307 430.72ZM631.169 295.842C631.169 296.053 631.169 296.053 631.459 296.265C653.918 338.679 679.255 380.882 710.067 420.54C663.42 421.6 446.888 439.627 427.594 442.383C444.007 431.144 581.356 332.318 631.169 295.842ZM410.317 440.264C393.617 418.632 287.655 296.265 267.212 270.18C284.199 273.148 483.744 301.78 482.879 303.263C456.964 349.071 432.202 393.607 410.317 440.264ZM487.199 296.476C456.1 290.115 274.985 262.757 266.06 262.334C317.312 246.852 367.99 229.885 418.67 213.558C468.195 197.651 518.296 182.169 567.534 165.628C539.316 206.557 511.675 254.062 487.199 296.476ZM403.983 446.837C376.917 451.078 175.646 469.742 157.794 472.287C175.069 438.779 189.465 406.756 205.878 373.036C222.291 339.105 239.281 305.171 254.829 270.817C284.777 309.201 403.409 446.625 403.983 446.837ZM408.013 454.895C393.617 470.165 341.5 553.509 334.589 562.629C321.345 556.054 307.81 549.481 294.566 542.906C251.374 521.486 208.759 499.006 162.976 480.768C175.933 478.648 362.233 461.258 408.013 454.895ZM274.41 542.482C316.16 563.052 357.913 583.835 399.953 604.407C445.446 626.886 490.942 649.366 536.438 671.846C486.622 666.333 272.681 655.516 217.396 658.909C209.333 628.794 165.28 515.124 156.065 486.283C196.666 503.884 235.538 523.182 274.41 542.482ZM538.164 680.329C529.814 685.419 408.878 740.77 376.342 751.796C363.672 745.86 228.627 666.333 226.611 665.059C274.985 663.576 487.486 675.239 538.164 680.329ZM343.804 567.082C356.184 552.66 407.439 472.073 418.38 458.713C441.129 492.221 465.027 525.516 486.047 559.659C507.642 594.863 527.51 630.705 545.652 666.756C478.562 633.673 411.182 600.379 343.804 567.082ZM497.566 558.176C475.394 521.699 452.07 485.009 424.716 450.441C471.361 445.565 661.116 430.295 709.49 428.175C685.592 465.075 656.509 511.094 630.307 550.964C604.68 589.562 585.386 621.373 556.593 664.424C538.451 628.371 518.873 592.955 497.566 558.176ZM563.504 675.239C596.617 666.121 729.071 624.553 759.016 614.798C759.016 614.798 770.247 676.299 774.564 707.262C778.019 732.71 780.613 758.16 782.339 783.608C709.777 746.92 636.066 711.292 562.927 675.239C563.217 675.239 563.217 675.239 563.504 675.239ZM781.765 683.934C837.05 653.819 892.622 623.704 946.467 592.107C925.16 622.645 903.275 655.73 879.951 684.994C866.707 701.749 852.885 718.29 838.776 734.62C831.29 743.102 823.802 751.796 816.317 760.068C808.831 768.34 793.28 784.456 793.28 784.456C790.689 750.737 786.659 717.231 781.765 683.934ZM825.819 763.885C833.017 755.827 840.215 747.557 847.413 739.497C862.1 722.744 875.922 705.777 889.741 688.599C914.506 657.638 938.117 624.978 959.425 592.53C979.58 601.65 1095.33 653.608 1122.98 665.273V665.484V665.696C1058.19 691.569 994.554 719.35 928.903 743.95C889.741 758.583 849.717 772.156 808.254 783.608C814.3 777.035 820.059 770.46 825.819 763.885ZM1122.11 655.941C1096.77 643.216 964.606 585.957 962.303 585.109C977.276 562.84 1127.58 392.971 1135.93 385.336C1128.45 431.355 1126.14 478.437 1123.84 524.667C1121.54 568.779 1120.38 611.83 1122.11 655.941ZM1136.51 368.157C1136.8 368.794 1021.33 289.267 999.736 274.422C999.736 274.422 1011.83 242.611 1017.01 225.221C1019.32 217.163 1021.04 210.164 1023.35 202.104C1063.95 191.501 1102.53 179.624 1139.68 166.902C1137.37 233.916 1138.24 300.932 1136.51 368.157ZM1039.47 74.8606C1030.54 128.092 1019.89 180.686 1003.48 233.067C999.448 245.792 995.128 258.517 990.521 271.029C990.521 271.029 812.287 212.284 812.287 212.073C872.176 181.746 985.626 114.944 1039.47 74.8606ZM780.9 57.8961C790.115 58.956 1008.09 70.8326 1028.82 72.104C996.28 97.1288 843.383 187.685 810.558 203.378C801.63 156.51 790.977 105.612 780.9 57.8961ZM744.619 200.833C791.554 214.406 837.911 229.251 883.694 245.367C855.766 274.21 827.835 303.052 800.191 331.893C774.854 358.191 748.075 384.064 723.599 410.997C721.583 374.733 715.824 211.013 714.962 192.561C725.038 195.318 734.83 198.076 744.619 200.833ZM704.308 189.593C702.866 208.468 710.929 369.643 714.097 410.149C687.318 371.762 661.116 330.621 640.096 290.327C617.637 247.7 600.36 204.226 583.66 160.115C583.66 160.115 664.572 179.201 704.308 189.593ZM603.815 60.8642C608.71 75.9226 613.604 90.7674 617.637 105.401C617.924 106.249 590.283 135.302 576.749 150.36C555.154 120.88 532.982 91.402 509.946 62.3493C504.764 55.9879 499.579 49.4127 494.685 43.0513C529.527 50.4726 602.95 61.0757 603.815 60.8642ZM420.683 78.0424C439.977 65.3174 459.845 53.0176 479.136 40.2926C486.622 49.2012 494.11 58.1076 501.021 67.2256C524.342 96.7057 546.804 126.607 568.399 156.722C530.391 168.385 492.381 180.686 454.661 192.986C428.172 169.658 401.68 146.542 374.039 124.062C370.583 121.305 367.415 118.549 363.96 115.578C383.541 103.704 401.68 90.3421 420.683 78.0424ZM279.592 60.2274C307.236 83.5555 337.18 105.612 365.111 128.729C392.178 150.995 418.67 173.475 444.294 196.591C434.218 199.773 424.426 203.166 414.35 206.346C361.943 223.313 308.675 239.006 257.133 257.244C244.175 240.066 191.482 172.626 174.207 154.6C209.333 123.002 244.463 91.6157 279.592 60.2274ZM67.9548 203.166C100.493 188.108 165.854 158.63 165.854 158.63C183.419 177.293 216.244 221.191 219.987 226.494C191.482 222.039 77.1694 214.406 47.5121 212.921C54.4231 209.739 61.0439 206.557 67.9548 203.166ZM45.2085 220.342C74.2884 222.887 197.241 230.948 228.915 236.038C229.202 236.038 229.202 236.038 229.492 236.038C235.825 244.944 242.159 253.639 248.783 262.545C229.779 297.962 213.366 334.226 196.089 370.066C190.33 381.942 184.283 393.819 178.524 405.696C168.448 391.274 156.643 377.489 145.986 363.281C133.893 347.163 122.088 330.833 110.282 314.715C87.8231 283.54 67.0902 251.731 45.2085 220.342ZM90.9914 433.9C71.1231 421.6 51.8293 409.301 32.5384 396.576C56.1493 370.491 77.4567 342.921 97.6122 315.351C98.4768 316.836 99.6286 318.108 100.493 319.593C111.721 335.498 123.24 351.193 135.045 366.886C147.138 383.216 158.946 400.18 172.765 415.874L173.055 416.087C164.415 433.689 155.778 451.29 148.002 468.893C129.863 456.591 109.995 445.565 90.9914 433.9ZM30.5219 661.243C52.9811 633.248 73.4267 604.195 93.8695 575.14C112.586 548.632 131.59 521.911 148.29 494.764C154.626 519.154 199.257 634.521 206.168 659.546C183.996 659.969 102.797 660.183 30.5219 661.243ZM84.945 736.103C113.738 759.645 144.837 782.125 175.356 804.605C191.194 816.268 207.32 827.931 223.733 839.384C238.704 850.199 253.677 861.439 269.516 871.619C269.226 871.619 268.938 871.619 268.651 871.619C238.704 875.86 99.0542 884.555 87.8231 885.192C87.8231 879.254 87.8231 876.283 87.8231 870.345C87.2457 825.811 86.0968 781.063 84.945 736.103ZM179.389 989.956C148.58 992.924 117.193 997.802 87.8231 1005.86C88.9749 969.173 88.3976 929.938 87.8231 893.25C101.645 891.765 255.407 882.647 271.529 879.04C271.819 879.04 272.394 878.828 272.681 878.617C257.42 897.067 194.073 970.656 179.389 989.956ZM274.41 876.283C274.41 876.072 274.41 876.072 274.41 876.283ZM234.674 835.354C218.548 824.114 202.713 812.663 187.164 801.211C154.339 777.458 122.665 752.645 90.1268 728.894C140.517 703.02 188.316 678.632 212.215 666.967C212.215 666.967 356.474 752.645 369.141 757.1C368.854 757.312 310.979 831.324 281.321 867.802C266.347 856.774 249.935 846.382 234.674 835.354ZM429.611 926.121C419.244 949.238 408.591 972.141 399.663 995.68C384.692 980.836 307.236 897.703 286.503 876.497C317.025 839.17 348.411 800.786 376.917 762.613C411.182 775.761 450.631 789.971 486.335 804.816C466.754 844.897 447.75 885.404 429.611 926.121ZM490.367 796.756C487.486 795.485 412.333 767.278 385.267 757.1C413.198 748.192 529.239 696.448 547.666 685.631C527.797 722.532 508.794 759.645 490.367 796.756ZM634.624 873.527C608.135 912.548 584.524 953.48 566.382 995.257C551.699 958.781 537.012 922.305 524.632 885.404C516.569 861.016 510.523 836.628 504.186 812.026C521.751 819.449 539.028 827.296 556.306 835.354C582.508 847.654 608.71 859.954 634.624 872.467C634.624 872.679 634.624 873.104 634.624 873.527ZM641.535 866.317C595.178 844.261 548.817 821.781 501.021 801.423C500.731 801.211 500.444 800.998 500.444 800.786C508.219 784.881 516.282 769.188 524.342 753.281C536.15 730.167 548.243 707.051 560.623 683.934C590.283 698.567 620.228 713.412 649.885 728.045C692.79 749.254 735.405 770.671 778.309 791.668C754.408 802.06 731.662 813.723 709.203 825.811C686.166 838.322 662.268 851.259 641.535 866.317ZM651.327 870.982C672.344 857.834 693.077 844.474 715.536 832.172C738.86 819.449 764.488 806.299 789.25 794.848C790.115 795.273 832.442 947.541 831.865 947.328C767.943 924.848 710.929 899.188 651.327 870.982ZM843.096 950.298C843.096 949.873 798.465 793.576 798.465 793.576C859.796 858.894 991.673 988.894 991.673 989.319C965.184 982.321 849.717 951.995 843.096 950.298ZM1028.82 906.823C1018.74 931.848 1007.51 956.871 998.871 982.109C998.584 982.109 998.584 981.896 998.297 981.896C935.814 918.275 874.48 854.017 810.558 791.454C860.37 777.883 908.457 760.917 955.392 742.678C965.471 757.735 1029.39 845.746 1046.67 863.135C1040.62 877.557 1034.86 892.19 1028.82 906.823ZM1050.7 853.169C1034 833.021 993.402 777.035 964.319 739.285C987.353 730.165 1010.39 720.835 1033.14 711.504C1063.37 698.99 1093.32 686.479 1123.84 674.391C1102.53 725.712 1081.8 777.035 1060.78 828.356C1057.32 836.414 1053.87 844.686 1050.7 853.169ZM1164.44 1045.31C1143.13 1006.92 1080.65 894.31 1063.08 867.377C1110.88 877.132 1305.53 916.153 1354.48 927.393C1335.76 938.21 1192.37 1026.64 1164.44 1045.31ZM1311.87 873.104C1322.81 884.555 1364.56 921.031 1364.56 921.031C1313.59 909.792 1110.02 867.165 1058.76 859.105C1062.8 849.35 1066.54 839.596 1070.57 829.841C1091.59 778.306 1112.9 726.985 1134.2 675.664C1171.64 713.412 1249.38 809.058 1311.87 873.104ZM1292.28 838.111C1266.94 809.906 1241.32 781.277 1216.56 752.645C1216.56 752.645 1314.46 701.324 1355.92 675.028C1353.9 680.966 1309.27 791.88 1292.28 838.111ZM1373.2 629.22C1368.3 640.671 1359.66 663.788 1359.66 663.788C1359.95 663.788 1212.24 745.647 1212.24 745.647C1205.04 737.377 1139.68 668.241 1139.68 668.029C1142.56 666.967 1396.81 567.719 1398.82 567.082C1389.32 587.228 1381.83 608.437 1373.2 629.22ZM1405.74 554.357C1395.66 558.599 1292 600.165 1292 600.165C1286.81 536.967 1281.63 477.8 1277.02 414.814C1299.2 434.96 1405.74 554.145 1405.74 554.357ZM1274.15 527.424C1276.45 553.086 1278.18 577.05 1281.05 602.71C1281.05 602.71 1141.4 658.272 1134.49 661.031C1134.2 660.817 1133.92 660.606 1133.34 660.394C1133.34 625.615 1133.05 593.378 1133.92 558.599C1134.49 558.387 1216.27 470.376 1265.51 414.602C1268.1 452.138 1270.98 489.676 1274.15 527.424ZM1259.75 247.064C1224.04 218.859 1188.34 190.864 1154.36 161.6C1119.52 131.697 1087.27 100.097 1053.29 69.5591C1133.63 73.5892 1211.95 76.771 1292.28 80.1621C1323.09 97.9772 1366 123.002 1365.71 123.213C1338.64 154.813 1311.87 186.411 1284.8 218.011C1276.45 227.766 1268.1 237.309 1259.75 247.064ZM1389.32 204.226C1392.2 217.163 1395.08 229.886 1397.67 242.822C1397.96 244.096 1397.96 246.852 1397.96 246.852C1397.67 247.064 1302.65 250.246 1270.11 249.609C1275.01 243.884 1279.9 238.369 1284.8 232.644C1314.17 198.288 1343.83 163.72 1373.2 129.363C1377.52 154.388 1383.85 179.413 1389.32 204.226Z" fill="#D2D4CD" fill-opacity="0.5"/>
</g>
<defs>
<linearGradient id="paint0_linear_88_1817" x1="1440" y1="530.5" x2="0" y2="530.5" gradientUnits="userSpaceOnUse">
<stop stop-color="#E0E2DB"/>
<stop offset="1" stop-color="#BEB7A4"/>
</linearGradient>
<clipPath id="clip0_88_1817">
<rect width="1440" height="1061" fill="white"/>
</clipPath>
</defs>
</svg>
