<svg width="315" height="59" viewBox="0 0 315 59" fill="none" xmlns="http://www.w3.org/2000/svg">
<g clip-path="url(#clip0_145_47)">
<path d="M29.5 35.9015L35.5647 40.4961C35.9613 40.7911 36.3661 40.8018 36.7791 40.5281C37.1921 40.2544 37.3282 39.8766 37.1872 39.3948L34.8887 31.7985L40.7788 27.639C41.2115 27.3195 41.3492 26.9228 41.1918 26.4492C41.0329 25.9739 40.7002 25.7363 40.1937 25.7363H32.9613L30.4784 17.7565C30.308 17.278 29.9827 17.0387 29.5025 17.0387C29.0223 17.0387 28.6953 17.278 28.5216 17.7565L26.0387 25.7363H18.8062C18.2982 25.7363 17.9655 25.9739 17.8082 26.4492C17.6508 26.9228 17.7885 27.3195 18.2212 27.639L24.1113 31.7985L21.8128 39.3948C21.6718 39.8733 21.8079 40.2503 22.2209 40.5256C22.6339 40.801 23.0387 40.7911 23.4353 40.4961L29.5 35.9015ZM29.5074 51.625C26.4476 51.625 23.5713 51.0448 20.8786 49.8845C18.1859 48.7225 15.8431 47.1459 13.8502 45.1547C11.8574 43.1634 10.2799 40.8231 9.11796 38.1337C7.95599 35.4443 7.375 32.5688 7.375 29.5074C7.375 26.4459 7.95599 23.5697 9.11796 20.8786C10.2783 18.1859 11.8524 15.8431 13.8404 13.8502C15.8284 11.8574 18.1695 10.2799 20.8639 9.11796C23.5582 7.95599 26.4345 7.375 29.4926 7.375C32.5508 7.375 35.427 7.95599 38.1214 9.11796C40.8141 10.2783 43.1569 11.8533 45.1497 13.8429C47.1426 15.8325 48.7201 18.1736 49.882 20.8663C51.044 23.559 51.625 26.4345 51.625 29.4926C51.625 32.5508 51.0448 35.427 49.8845 38.1214C48.7242 40.8157 47.1476 43.1585 45.1547 45.1497C43.1618 47.141 40.8214 48.7184 38.1337 49.882C35.4459 51.0457 32.5705 51.6266 29.5074 51.625Z" fill="#E6AF2E"/>
<path d="M93.5 35.9015L99.5647 40.4961C99.9613 40.7911 100.366 40.8018 100.779 40.5281C101.192 40.2544 101.328 39.8766 101.187 39.3948L98.8887 31.7985L104.779 27.639C105.211 27.3195 105.349 26.9228 105.192 26.4492C105.033 25.9739 104.7 25.7363 104.194 25.7363H96.9613L94.4784 17.7565C94.308 17.278 93.9827 17.0387 93.5025 17.0387C93.0223 17.0387 92.6953 17.278 92.5216 17.7565L90.0387 25.7363H82.8062C82.2982 25.7363 81.9655 25.9739 81.8082 26.4492C81.6508 26.9228 81.7885 27.3195 82.2212 27.639L88.1113 31.7985L85.8128 39.3948C85.6718 39.8733 85.8079 40.2503 86.2209 40.5256C86.6339 40.801 87.0387 40.7911 87.4353 40.4961L93.5 35.9015ZM93.5074 51.625C90.4476 51.625 87.5713 51.0448 84.8786 49.8845C82.1859 48.7225 79.8431 47.1459 77.8502 45.1547C75.8574 43.1634 74.2799 40.8231 73.118 38.1337C71.956 35.4443 71.375 32.5688 71.375 29.5074C71.375 26.4459 71.956 23.5697 73.118 20.8786C74.2783 18.1859 75.8524 15.8431 77.8404 13.8502C79.8284 11.8574 82.1695 10.2799 84.8639 9.11796C87.5582 7.95599 90.4345 7.375 93.4926 7.375C96.5508 7.375 99.427 7.95599 102.121 9.11796C104.814 10.2783 107.157 11.8533 109.15 13.8429C111.143 15.8325 112.72 18.1736 113.882 20.8663C115.044 23.559 115.625 26.4345 115.625 29.4926C115.625 32.5508 115.045 35.427 113.884 38.1214C112.724 40.8157 111.148 43.1585 109.155 45.1497C107.162 47.141 104.821 48.7184 102.134 49.882C99.4459 51.0457 96.5705 51.6266 93.5074 51.625Z" fill="#E6AF2E"/>
<path d="M157.5 35.9015L163.565 40.4961C163.961 40.7911 164.366 40.8018 164.779 40.5281C165.192 40.2544 165.328 39.8766 165.187 39.3948L162.889 31.7985L168.779 27.639C169.211 27.3195 169.349 26.9228 169.192 26.4492C169.033 25.9739 168.7 25.7363 168.194 25.7363H160.961L158.478 17.7565C158.308 17.278 157.983 17.0387 157.502 17.0387C157.022 17.0387 156.695 17.278 156.522 17.7565L154.039 25.7363H146.806C146.298 25.7363 145.965 25.9739 145.808 26.4492C145.651 26.9228 145.788 27.3195 146.221 27.639L152.111 31.7985L149.813 39.3948C149.672 39.8733 149.808 40.2503 150.221 40.5256C150.634 40.801 151.039 40.7911 151.435 40.4961L157.5 35.9015ZM157.507 51.625C154.448 51.625 151.571 51.0448 148.879 49.8845C146.186 48.7225 143.843 47.1459 141.85 45.1547C139.857 43.1634 138.28 40.8231 137.118 38.1337C135.956 35.4443 135.375 32.5688 135.375 29.5074C135.375 26.4459 135.956 23.5697 137.118 20.8786C138.278 18.1859 139.852 15.8431 141.84 13.8502C143.828 11.8574 146.17 10.2799 148.864 9.11796C151.558 7.95599 154.434 7.375 157.493 7.375C160.551 7.375 163.427 7.95599 166.121 9.11796C168.814 10.2783 171.157 11.8533 173.15 13.8429C175.143 15.8325 176.72 18.1736 177.882 20.8663C179.044 23.559 179.625 26.4345 179.625 29.4926C179.625 32.5508 179.045 35.427 177.884 38.1214C176.724 40.8157 175.148 43.1585 173.155 45.1497C171.162 47.141 168.821 48.7184 166.134 49.882C163.446 51.0457 160.57 51.6266 157.507 51.625Z" fill="#E6AF2E"/>
<path d="M221.5 35.9015L227.565 40.4961C227.961 40.7911 228.366 40.8018 228.779 40.5281C229.192 40.2544 229.328 39.8766 229.187 39.3948L226.889 31.7985L232.779 27.639C233.211 27.3195 233.349 26.9228 233.192 26.4492C233.033 25.9739 232.7 25.7363 232.194 25.7363H224.961L222.478 17.7565C222.308 17.278 221.983 17.0387 221.502 17.0387C221.022 17.0387 220.695 17.278 220.522 17.7565L218.039 25.7363H210.806C210.298 25.7363 209.965 25.9739 209.808 26.4492C209.651 26.9228 209.788 27.3195 210.221 27.639L216.111 31.7985L213.813 39.3948C213.672 39.8733 213.808 40.2503 214.221 40.5256C214.634 40.801 215.039 40.7911 215.435 40.4961L221.5 35.9015ZM221.507 51.625C218.448 51.625 215.571 51.0448 212.879 49.8845C210.186 48.7225 207.843 47.1459 205.85 45.1547C203.857 43.1634 202.28 40.8231 201.118 38.1337C199.956 35.4443 199.375 32.5688 199.375 29.5074C199.375 26.4459 199.956 23.5697 201.118 20.8786C202.278 18.1859 203.852 15.8431 205.84 13.8502C207.828 11.8574 210.17 10.2799 212.864 9.11796C215.558 7.95599 218.434 7.375 221.493 7.375C224.551 7.375 227.427 7.95599 230.121 9.11796C232.814 10.2783 235.157 11.8533 237.15 13.8429C239.143 15.8325 240.72 18.1736 241.882 20.8663C243.044 23.559 243.625 26.4345 243.625 29.4926C243.625 32.5508 243.045 35.427 241.884 38.1214C240.724 40.8157 239.148 43.1585 237.155 45.1497C235.162 47.141 232.821 48.7184 230.134 49.882C227.446 51.0457 224.57 51.6266 221.507 51.625Z" fill="#E6AF2E"/>
<path d="M285.5 35.9015L291.565 40.4961C291.961 40.7911 292.366 40.8018 292.779 40.5281C293.192 40.2544 293.328 39.8766 293.187 39.3948L290.889 31.7985L296.779 27.639C297.211 27.3195 297.349 26.9228 297.192 26.4492C297.033 25.9739 296.7 25.7363 296.194 25.7363H288.961L286.478 17.7565C286.308 17.278 285.983 17.0387 285.502 17.0387C285.022 17.0387 284.695 17.278 284.522 17.7565L282.039 25.7363H274.806C274.298 25.7363 273.965 25.9739 273.808 26.4492C273.651 26.9228 273.788 27.3195 274.221 27.639L280.111 31.7985L277.813 39.3948C277.672 39.8733 277.808 40.2503 278.221 40.5256C278.634 40.801 279.039 40.7911 279.435 40.4961L285.5 35.9015ZM285.507 51.625C282.448 51.625 279.571 51.0448 276.879 49.8845C274.186 48.7225 271.843 47.1459 269.85 45.1547C267.857 43.1634 266.28 40.8231 265.118 38.1337C263.956 35.4443 263.375 32.5688 263.375 29.5074C263.375 26.4459 263.956 23.5697 265.118 20.8786C266.278 18.1859 267.852 15.8431 269.84 13.8502C271.828 11.8574 274.17 10.2799 276.864 9.11796C279.558 7.95599 282.434 7.375 285.493 7.375C288.551 7.375 291.427 7.95599 294.121 9.11796C296.814 10.2783 299.157 11.8533 301.15 13.8429C303.143 15.8325 304.72 18.1736 305.882 20.8663C307.044 23.559 307.625 26.4345 307.625 29.4926C307.625 32.5508 307.045 35.427 305.884 38.1214C304.724 40.8157 303.148 43.1585 301.155 45.1497C299.162 47.141 296.821 48.7184 294.134 49.882C291.446 51.0457 288.57 51.6266 285.507 51.625Z" fill="#E0E2DB"/>
</g>
<defs>
<clipPath id="clip0_145_47">
<rect width="315" height="59" fill="white"/>
</clipPath>
</defs>
</svg>
