<svg width="756" height="973" viewBox="0 0 756 973" fill="none" xmlns="http://www.w3.org/2000/svg">
<g clip-path="url(#clip0_39_1662)">
<mask id="mask0_39_1662" style="mask-type:luminance" maskUnits="userSpaceOnUse" x="178" y="295" width="399" height="402">
<path d="M178 295.667H576.417V696.604H178V295.667Z" fill="white"/>
</mask>
<g mask="url(#mask0_39_1662)">
<mask id="mask1_39_1662" style="mask-type:luminance" maskUnits="userSpaceOnUse" x="178" y="295" width="399" height="401">
<path d="M468.563 404.104C478.63 437.443 489.24 470.62 498.281 504.245C500.214 511.443 498.776 521.719 494.787 527.927C461.203 580.136 426.709 631.729 392.386 683.443C381.49 699.849 374.745 700.052 364.182 684.224C329.24 631.688 294.172 579.229 259.844 526.281C256.349 520.896 255.448 511.729 257.214 505.396C266.011 473.823 276.167 442.662 285.787 411.297C286.771 408.005 287.349 404.636 285.375 399.005C274.068 409.037 262.516 418.776 251.584 429.177C239.042 441.141 224.86 446.443 208.047 440.771C179.682 431.151 169.318 399.292 188.724 375.818C223.542 333.682 269.302 308.396 322.25 296.026C325.167 295.323 329.729 296.354 331.87 298.365C343.214 308.807 354.354 319.458 364.714 330.802C367.021 333.349 366.854 339.313 366.031 343.302C359.537 375.406 352.136 407.391 346.219 439.62C345.026 446.037 347.078 454.542 350.74 460.011C358.386 471.401 368.089 481.391 378.365 493.682C389.302 480.36 400.11 468.276 409.401 455.12C411.995 451.458 410.844 444.349 409.813 439.13C403.36 406.979 396.084 375.037 390.084 342.807C389.136 337.583 392.302 330.802 395.386 325.912C398.261 321.307 404.594 318.922 407.594 314.401C422.432 292.162 441.224 295.406 462.313 303.714C501.12 318.964 535.735 340.136 563.771 371.297C580.667 390.042 580.339 415.406 563.198 432.099C546.792 448.047 522.948 446.568 503.875 429.099C493.391 419.479 481.964 410.802 470.943 401.719C469.875 401.349 468.849 401.021 467.781 400.651C468.026 401.802 468.229 402.953 468.479 404.104" fill="white"/>
</mask>
<g mask="url(#mask1_39_1662)">
<path d="M-10.4531 -9.34375H766.37V716.453H-10.4531V-9.34375Z" fill="#3D348B"/>
</g>
</g>
<mask id="mask2_39_1662" style="mask-type:luminance" maskUnits="userSpaceOnUse" x="26" y="411" width="278" height="240">
<path d="M26 411.667H303.333V650.334H26V411.667Z" fill="white"/>
</mask>
<g mask="url(#mask2_39_1662)">
<mask id="mask3_39_1662" style="mask-type:luminance" maskUnits="userSpaceOnUse" x="26" y="411" width="278" height="240">
<path d="M303.136 650.146C242.823 605.172 182.516 560.198 119 512.839C115.302 531.297 111.479 546.386 109.422 561.719C106.052 587.084 88.1668 603.323 63.7502 601.761C41.2606 600.318 24.2033 580.339 26.297 555.797C30.7397 503.917 49.0731 457.297 82.495 417.094C85.1668 413.886 91.0054 411.667 95.2814 411.829C108.557 412.24 122 413.146 134.995 415.776C139.761 416.724 145.063 422.151 147.448 426.875C161.344 454.256 174.995 481.761 187.448 509.797C192.547 521.308 199.167 528.214 211.787 529.12C223.833 529.98 231.724 536.313 238.261 546.631C257.172 576.516 277.235 605.667 296.557 635.308C299.432 639.704 300.792 645.047 302.844 649.943L303.136 650.146Z" fill="white"/>
</mask>
<g mask="url(#mask3_39_1662)">
<path d="M-10.4531 -9.34326H766.37V716.454H-10.4531V-9.34326Z" fill="#E6AF2E"/>
</g>
</g>
<g clip-path="url(#clip1_39_1662)">
<mask id="mask4_39_1662" style="mask-type:luminance" maskUnits="userSpaceOnUse" x="75" y="10" width="606" height="241">
<path d="M75.3335 10.5054H680.667V250.333H75.3335V10.5054Z" fill="white"/>
</mask>
<g mask="url(#mask4_39_1662)">
<mask id="mask5_39_1662" style="mask-type:luminance" maskUnits="userSpaceOnUse" x="76" y="11" width="604" height="239">
<path d="M154.193 248.828C132.365 228.318 105.474 221.74 76.4951 221.162C113.287 110.656 223.256 18.943 356.99 11.745C503.094 3.85441 628.933 86.1565 679.907 221.203C650.391 221.781 623.052 228.151 601.016 249.281C557.36 152.302 484.427 98.2034 378.448 95.6513C304.203 93.8857 204.511 131.5 154.151 248.787" fill="white"/>
</mask>
<g mask="url(#mask5_39_1662)">
<path d="M-10.4526 -9.34375H766.37V716.453H-10.4526V-9.34375Z" fill="#E6AF2E"/>
</g>
</g>
<mask id="mask6_39_1662" style="mask-type:luminance" maskUnits="userSpaceOnUse" x="303" y="138" width="150" height="151">
<path d="M303.333 138.333H452.667V289H303.333V138.333Z" fill="white"/>
</mask>
<g mask="url(#mask6_39_1662)">
<mask id="mask7_39_1662" style="mask-type:luminance" maskUnits="userSpaceOnUse" x="303" y="138" width="150" height="151">
<path d="M303.339 213.599C303.547 172.651 337.912 137.875 377.459 138.532C419.558 139.23 452.568 172.776 452.115 214.381C451.662 254.792 417.995 288.828 378.901 288.375C336.474 287.886 303.136 254.912 303.339 213.558" fill="white"/>
</mask>
<g mask="url(#mask7_39_1662)">
<path d="M-10.4531 -9.34326H766.37V716.454H-10.4531V-9.34326Z" fill="#3D348B"/>
</g>
</g>
<mask id="mask8_39_1662" style="mask-type:luminance" maskUnits="userSpaceOnUse" x="10" y="250" width="150" height="151">
<path d="M10 250.333H159.333V401H10V250.333Z" fill="white"/>
</mask>
<g mask="url(#mask8_39_1662)">
<mask id="mask9_39_1662" style="mask-type:luminance" maskUnits="userSpaceOnUse" x="10" y="251" width="149" height="149">
<path d="M10.0988 324.594C10.2654 283.568 43.1925 251.214 84.88 251.172C125.823 251.13 158.797 284.51 158.588 325.745C158.385 367.516 125.864 400.031 84.5519 399.703C41.5102 399.417 9.9373 367.557 10.0988 324.594Z" fill="white"/>
</mask>
<g mask="url(#mask9_39_1662)">
<path d="M-10.4531 -9.34375H766.37V716.453H-10.4531V-9.34375Z" fill="#3D348B"/>
</g>
</g>
<mask id="mask10_39_1662" style="mask-type:luminance" maskUnits="userSpaceOnUse" x="596" y="250" width="150" height="150">
<path d="M596.266 250.333H746V399.667H596.266V250.333Z" fill="white"/>
</mask>
<g mask="url(#mask10_39_1662)">
<mask id="mask11_39_1662" style="mask-type:luminance" maskUnits="userSpaceOnUse" x="596" y="251" width="150" height="149">
<path d="M670.411 251.256C712.344 251.172 745.271 282.912 745.891 324.063C746.505 365.006 713.328 399.459 673 399.662C631.026 399.907 596.62 366.693 596.495 325.745C596.328 284.719 629.464 251.297 670.411 251.214" fill="white"/>
</mask>
<g mask="url(#mask11_39_1662)">
<path d="M-10.4531 -9.34326H766.37V716.454H-10.4531V-9.34326Z" fill="#3D348B"/>
</g>
</g>
</g>
<mask id="mask12_39_1662" style="mask-type:luminance" maskUnits="userSpaceOnUse" x="452" y="410" width="278" height="238">
<path d="M452.667 410.333H729.515V647.667H452.667V410.333Z" fill="white"/>
</mask>
<g mask="url(#mask12_39_1662)">
<mask id="mask13_39_1662" style="mask-type:luminance" maskUnits="userSpaceOnUse" x="453" y="410" width="277" height="238">
<path d="M453.474 644.349C477.151 608.625 500.422 572.615 525.005 537.505C528.541 532.448 538.119 530.719 545.271 529.198C555.958 526.938 562.989 522.459 567.76 511.688C580.625 482.703 594.562 454.172 609.156 426.016C611.744 421 619.39 418.287 625.109 415.323C627.614 414.011 631.396 415.49 634.192 414.464C662.474 404.141 678.593 417.834 691.869 441.266C712.135 476.99 726.567 514.36 729.073 555.594C730.718 582.641 715.588 601.141 691.703 602.953C668.604 604.719 649.979 587.823 646.114 562.292C643.771 546.714 640.526 531.255 637.192 512.964C575.323 558.88 515.88 602.995 456.39 647.104C455.448 646.198 454.5 645.297 453.557 644.391" fill="white"/>
</mask>
<g mask="url(#mask13_39_1662)">
<path d="M-10.4536 -9.34375H766.369V716.453H-10.4536V-9.34375Z" fill="#E6AF2E"/>
</g>
</g>
<mask id="mask14_39_1662" style="mask-type:luminance" maskUnits="userSpaceOnUse" x="302" y="649" width="3" height="2">
<path d="M302 649H304.245V650.333H302V649Z" fill="white"/>
</mask>
<g mask="url(#mask14_39_1662)">
<mask id="mask15_39_1662" style="mask-type:luminance" maskUnits="userSpaceOnUse" x="302" y="649" width="2" height="2">
<path d="M302.802 649.943L303.583 649.859L303.094 650.146L302.766 649.943" fill="white"/>
</mask>
<g mask="url(#mask15_39_1662)">
<path d="M-10.4531 -9.34375H766.37V716.453H-10.4531V-9.34375Z" fill="white"/>
</g>
</g>
</g>
<path d="M133.585 794.998C135.778 796.831 137.169 798.945 137.752 801.331C138.335 803.706 138.007 805.925 136.773 807.977C135.523 810.175 133.7 811.55 131.315 812.102C128.94 812.659 126.32 812.383 123.46 811.268C117.96 809.008 112.679 804.935 107.627 799.06L104.21 795.102C102.377 792.977 100.544 790.841 98.7104 788.685C96.8771 786.518 95.0438 784.373 93.2104 782.248C93.0698 782.029 92.924 781.805 92.7729 781.581C92.6167 781.362 92.4709 781.102 92.3354 780.81C92.1792 780.451 92.0334 780.195 91.8979 780.039L91.2313 778.935L88.7104 780.706V786.102C88.7104 788.227 88.7104 790.32 88.7104 792.373C88.7104 794.414 88.7104 796.498 88.7104 798.623V799.289C88.7104 800.164 88.6896 801.102 88.6479 802.102C88.6063 803.091 88.5125 804.018 88.3771 804.893C88.0021 806.81 87.1896 808.393 85.9396 809.643C84.7 810.883 83.2 811.576 81.4396 811.727C79.6896 811.935 78.0542 811.602 76.5438 810.727C75.0438 809.852 74.0021 808.612 73.4188 806.998C71.9448 803.248 71.2104 799.873 71.2104 796.873C71.2104 788.222 71.2625 779.534 71.3771 770.81C71.4865 762.091 71.6167 753.472 71.7729 744.956V743.852C71.7729 742.175 72.1375 740.268 72.8771 738.143C73.8875 734.992 75.7938 733.451 78.5854 733.518C81.4448 733.591 83.2 735.097 83.8563 738.039C84.299 739.789 84.6688 741.57 84.9604 743.373C85.2521 745.164 85.5073 746.977 85.7313 748.81L86.1688 751.456C86.3198 752.404 86.45 753.331 86.5646 754.248C86.674 755.164 86.7625 756.138 86.8354 757.164C86.9865 758.195 87.0959 759.185 87.1688 760.143L87.3771 762.227L89.7938 760.477C90.2365 760.175 90.5698 759.914 90.7938 759.706L119.065 734.185C119.2 734.034 119.492 733.81 119.94 733.518L120.148 733.414C122.424 731.945 124.627 731.248 126.752 731.331C128.877 731.404 130.596 732.279 131.919 733.956C133.32 735.722 133.82 737.685 133.419 739.852C133.013 742.008 131.82 743.93 129.835 745.623C127.638 747.456 125.382 749.289 123.065 751.123C120.757 752.956 118.466 754.789 116.19 756.623C115.023 757.498 113.846 758.393 112.669 759.31C111.502 760.227 110.335 761.164 109.169 762.123C108.361 762.706 107.591 763.331 106.856 763.998C106.117 764.654 105.346 765.31 104.544 765.977L101.231 768.706L103.002 770.373C103.294 770.597 103.549 770.82 103.773 771.039C103.992 771.248 104.216 771.43 104.44 771.581C105.966 772.82 107.481 774.05 108.981 775.268C110.492 776.477 112.023 777.701 113.565 778.935C116.94 781.576 120.294 784.237 123.627 786.914C126.96 789.597 130.278 792.289 133.585 794.998Z" fill="#3D348B"/>
<path d="M216.493 801.696C216.628 804.769 216.409 807.519 215.826 809.946C215.019 813.305 212.894 815.206 209.451 815.654C206.003 816.097 203.472 814.779 201.847 811.696C200.389 808.904 199.545 806.191 199.326 803.55C199.102 800.842 198.935 798.102 198.826 795.321C198.711 792.529 198.623 789.779 198.555 787.071C198.555 786.112 198.534 785.144 198.493 784.154C198.461 783.154 198.409 782.144 198.326 781.112C198.326 780.685 198.326 780.211 198.326 779.696C198.326 779.185 198.326 778.706 198.326 778.258V775.612H160.826V778.362C160.826 778.878 160.826 779.357 160.826 779.8C160.826 780.248 160.826 780.685 160.826 781.112V788.821C160.909 791.019 160.951 793.232 160.951 795.467C160.951 797.706 160.951 799.961 160.951 802.238V802.571C161.019 803.31 161.034 804.024 160.993 804.717C160.961 805.415 160.909 806.128 160.826 806.863C160.618 809.128 159.941 810.941 158.805 812.3C157.665 813.659 156.211 814.342 154.451 814.342C154.451 814.342 154.43 814.342 154.389 814.342C154.357 814.342 154.347 814.342 154.347 814.342C152.514 814.342 150.993 813.68 149.784 812.363C148.576 811.045 147.894 809.321 147.743 807.196C147.086 796.113 146.503 785.941 145.993 776.675C145.477 767.399 145.034 758.581 144.659 750.217C144.586 748.165 144.732 746.06 145.097 743.904C145.472 741.737 145.836 739.737 146.201 737.904C146.576 736.003 147.378 734.503 148.618 733.404C149.868 732.295 151.336 731.816 153.034 731.967C154.644 732.04 155.977 732.644 157.034 733.779C158.102 734.92 158.784 736.477 159.076 738.446C159.295 740.435 159.477 742.477 159.618 744.571C159.769 746.654 159.915 748.717 160.055 750.758C160.139 751.649 160.191 752.529 160.222 753.404C160.264 754.279 160.316 755.165 160.389 756.05L160.722 760.779H198.222L198.451 754.946C198.586 753.185 198.691 751.482 198.764 749.842C198.847 748.191 198.956 746.519 199.097 744.821C199.18 743.362 199.274 741.852 199.389 740.279C199.498 738.696 199.659 737.102 199.868 735.487C200.17 733.946 200.685 732.477 201.409 731.071C201.852 730.269 202.514 729.519 203.389 728.821C204.274 728.128 205.524 727.857 207.139 728.008C209.623 728.3 211.165 729.623 211.764 731.967C212.482 734.748 212.92 737.79 213.076 741.092C213.727 752.092 214.347 762.602 214.93 772.612C215.524 782.612 216.045 792.31 216.493 801.696Z" fill="#3D348B"/>
<path d="M303.243 798.803C303.327 799.318 303.436 799.798 303.577 800.24C303.504 802.949 302.9 805.219 301.764 807.053C300.623 808.886 299.035 810.094 296.993 810.678C294.936 811.344 292.952 811.277 291.035 810.469C289.129 809.667 287.597 808.303 286.431 806.386C285.181 804.261 284.118 801.626 283.243 798.469C282.952 797.303 282.436 796.251 281.702 795.303C280.962 794.344 279.644 793.824 277.743 793.74C275.618 793.673 273.483 793.605 271.347 793.532C269.222 793.464 267.097 793.386 264.972 793.303C262.191 793.167 259.373 793.042 256.514 792.928C253.65 792.818 250.79 792.73 247.931 792.657C247.191 792.657 246.389 792.969 245.514 793.594C244.639 794.209 243.978 794.844 243.535 795.511C242.952 796.542 242.379 797.589 241.827 798.657C241.285 799.714 240.754 800.756 240.243 801.782C239.728 802.813 239.191 803.876 238.639 804.969C238.082 806.068 237.478 807.131 236.827 808.157C234.254 812.631 231.139 814.063 227.472 812.449C226.014 811.865 224.827 810.693 223.91 808.928C222.993 807.167 222.894 805.11 223.618 802.761C226.186 794.777 229.493 785.719 233.535 775.594C236.087 769.152 239.311 761.896 243.202 753.824C244.295 751.548 245.525 749.146 246.889 746.615C248.248 744.089 249.733 741.615 251.347 739.199C253.025 736.782 255.478 734.657 258.702 732.824C261.129 731.355 263.441 730.615 265.639 730.615C269.525 730.615 272.754 732.782 275.327 737.115C280.379 745.771 285.327 754.771 290.16 764.115C295.004 773.464 298.931 783.303 301.931 793.636C302.222 794.594 302.478 795.511 302.702 796.386C302.92 797.261 303.103 798.068 303.243 798.803ZM254.431 774.053H274.993L263.222 749.969L254.431 774.053Z" fill="#3D348B"/>
<path d="M366.293 741.604C370.095 745.344 373.043 749.745 375.126 754.813C377.22 759.87 378.272 765.182 378.272 770.75C378.272 782.708 373.543 792.167 364.085 799.125C351.986 808 338.715 812.766 324.272 813.417C320.897 813.573 317.595 812.698 314.376 810.792C312.319 809.682 311.033 808.031 310.522 805.833C309.783 803.266 310.262 800.594 311.96 797.813C313.345 795.537 314.074 793.156 314.147 790.667C314.23 786.042 314.303 781.427 314.376 776.813C314.444 772.188 314.512 767.531 314.585 762.833C314.668 759.682 314.72 756.516 314.751 753.333C314.793 750.141 314.845 746.969 314.918 743.813C314.918 741.604 315.116 739.886 315.522 738.646C315.923 737.396 316.652 736.406 317.71 735.667C318.777 734.932 320.34 734.24 322.397 733.583C324.007 733.073 325.694 732.615 327.46 732.208C329.22 731.807 330.944 731.417 332.626 731.042C333.21 730.906 333.793 730.781 334.376 730.667C334.97 730.557 335.564 730.427 336.147 730.271L336.251 730.938H337.251C342.819 730.719 348.111 731.521 353.126 733.354C358.152 735.188 362.543 737.938 366.293 741.604ZM350.23 782.188C352.798 780.646 354.798 778.542 356.23 775.875C357.658 773.198 358.335 770.313 358.251 767.229C358.251 764.011 357.48 761.042 355.939 758.333C354.408 755.615 352.319 753.448 349.668 751.833C347.402 750.448 345.007 749.516 342.48 749.042C339.949 748.557 337.439 748.167 334.939 747.875C334.423 747.807 333.908 747.74 333.397 747.667C332.882 747.583 332.335 747.511 331.751 747.438L330.314 747.208L332.418 791.542L334.064 790.667C335.007 790.156 335.939 789.677 336.855 789.229C337.772 788.787 338.673 788.349 339.564 787.917C341.465 787.031 343.293 786.125 345.043 785.208C346.803 784.292 348.533 783.287 350.23 782.188Z" fill="#3D348B"/>
<path d="M464.984 798.803C465.067 799.318 465.177 799.798 465.317 800.24C465.244 802.949 464.64 805.219 463.505 807.053C462.364 808.886 460.776 810.094 458.734 810.678C456.677 811.344 454.692 811.277 452.776 810.469C450.869 809.667 449.338 808.303 448.171 806.386C446.921 804.261 445.859 801.626 444.984 798.469C444.692 797.303 444.177 796.251 443.442 795.303C442.703 794.344 441.385 793.824 439.484 793.74C437.359 793.673 435.224 793.605 433.088 793.532C430.963 793.464 428.838 793.386 426.713 793.303C423.932 793.167 421.114 793.042 418.255 792.928C415.39 792.818 412.531 792.73 409.671 792.657C408.932 792.657 408.13 792.969 407.255 793.594C406.38 794.209 405.718 794.844 405.276 795.511C404.692 796.542 404.119 797.589 403.567 798.657C403.026 799.714 402.494 800.756 401.984 801.782C401.468 802.813 400.932 803.876 400.38 804.969C399.823 806.068 399.218 807.131 398.567 808.157C395.994 812.631 392.88 814.063 389.213 812.449C387.755 811.865 386.567 810.693 385.651 808.928C384.734 807.167 384.635 805.11 385.359 802.761C387.927 794.777 391.234 785.719 395.276 775.594C397.828 769.152 401.052 761.896 404.942 753.824C406.036 751.548 407.265 749.146 408.63 746.615C409.989 744.089 411.474 741.615 413.088 739.199C414.765 736.782 417.218 734.657 420.442 732.824C422.869 731.355 425.182 730.615 427.38 730.615C431.265 730.615 434.494 732.782 437.067 737.115C442.119 745.771 447.067 754.771 451.901 764.115C456.744 773.464 460.671 783.303 463.671 793.636C463.963 794.594 464.218 795.511 464.442 796.386C464.661 797.261 464.843 798.068 464.984 798.803ZM416.171 774.053H436.734L424.963 749.969L416.171 774.053Z" fill="#3D348B"/>
<path d="M569.926 794.6C570.145 798.491 569.78 802.491 568.822 806.6C568.239 808.798 567.228 810.517 565.801 811.767C564.369 813.017 562.661 813.678 560.676 813.746C558.926 813.819 557.202 813.303 555.51 812.204C553.827 811.111 552.765 809.387 552.322 807.038C550.864 799.928 549.833 791.642 549.239 782.183C549.03 779.616 548.937 777.048 548.968 774.475C549.01 771.907 549.03 769.381 549.03 766.892C549.03 765.725 549.041 764.538 549.072 763.329C549.114 762.111 549.135 760.913 549.135 759.746C549.135 759.079 549.077 758.387 548.968 757.663C548.853 756.928 548.619 756.157 548.26 755.35L547.155 753.038L545.614 756.225C545.473 756.59 545.327 756.954 545.176 757.329C545.036 757.694 544.89 758.053 544.739 758.413C544.223 759.887 543.708 761.34 543.197 762.767C542.681 764.199 542.166 765.652 541.655 767.121C540.78 769.611 539.916 772.1 539.072 774.6C538.223 777.09 537.327 779.538 536.385 781.954L536.28 782.392C535.765 783.798 535.228 785.215 534.676 786.642C534.119 788.074 533.478 789.449 532.76 790.767C530.635 794.282 527.843 796.111 524.385 796.246C521.02 796.402 518.166 794.866 515.822 791.642C514.499 789.881 513.343 788.012 512.343 786.038C511.353 784.053 510.426 782.032 509.551 779.975C508.52 777.782 507.51 775.553 506.51 773.288C505.52 771.012 504.556 768.736 503.614 766.454C503.166 765.361 502.687 764.241 502.176 763.1C501.661 761.965 501.181 760.808 500.739 759.642C500.53 759.131 500.223 758.579 499.822 757.996C499.416 757.402 498.885 756.777 498.218 756.121L496.572 754.683L495.905 758.975C495.833 759.715 495.744 760.47 495.635 761.246C495.52 762.012 495.431 762.756 495.364 763.475C495.072 766.267 494.77 769.038 494.468 771.788C494.176 774.538 493.885 777.303 493.593 780.079C493.228 783.97 492.848 787.845 492.447 791.704C492.041 795.553 491.619 799.413 491.176 803.288C491.103 804.611 490.973 805.913 490.78 807.204C490.598 808.486 490.327 809.715 489.968 810.892C489.385 813.157 488.244 814.949 486.551 816.267C484.869 817.59 482.968 818.21 480.843 818.142C478.645 818.074 476.76 817.288 475.176 815.788C473.603 814.277 472.666 812.423 472.364 810.225C471.78 805.683 471.78 801.538 472.364 797.788C474.999 781.595 477.973 765.1 481.28 748.308C482.015 744.423 483.369 740.642 485.343 736.975C487.176 733.756 489.598 731.887 492.614 731.371C493.041 731.303 493.478 731.267 493.926 731.267C496.343 731.267 498.614 732.22 500.739 734.121C504.114 737.204 507.666 741.6 511.405 747.308C512.583 749.074 513.687 750.928 514.718 752.871C515.744 754.819 516.806 756.777 517.905 758.746C518.348 759.704 518.806 760.642 519.28 761.558C519.749 762.475 520.244 763.413 520.76 764.371L521.968 766.558L522.968 764.246C523.327 763.371 523.676 762.496 524.01 761.621C524.343 760.736 524.687 759.85 525.051 758.975C525.786 756.991 526.515 755.079 527.239 753.246C527.973 751.413 528.749 749.579 529.572 747.746C531.39 743.72 533.583 739.579 536.155 735.329C537.405 733.204 539.02 731.225 541.01 729.392C544.452 726.241 548.01 725.032 551.676 725.767C555.343 726.491 558.124 729.017 560.03 733.35C563.405 740.756 565.64 749.923 566.739 760.85L567.405 767.558C567.905 771.949 568.374 776.433 568.822 781.017C569.265 785.6 569.635 790.131 569.926 794.6Z" fill="#3D348B"/>
<path d="M654.92 736.51C655.363 738.719 655.587 741.068 655.587 743.552L655.358 752.573C655.217 759.531 655.071 766.588 654.92 773.74C654.764 780.896 654.545 788.026 654.254 795.135C654.03 802.76 651.795 807.75 647.545 810.094C643.446 812.375 638.17 811.677 631.712 808.01C628.42 806.094 625.4 803.802 622.65 801.135C619.9 798.458 617.639 796.052 615.879 793.927C613.681 791.427 611.592 788.802 609.608 786.052C607.618 783.302 605.676 780.573 603.775 777.865C602.967 776.771 602.176 775.672 601.4 774.573C600.634 773.479 599.847 772.375 599.045 771.26L598.608 770.49C598.16 769.906 597.681 769.302 597.17 768.677C596.67 768.052 596.009 767.448 595.191 766.865L593.337 765.448V768.969C593.337 769.401 593.337 769.818 593.337 770.219C593.337 770.625 593.337 771.047 593.337 771.49L593.004 778.635C592.847 783.177 592.696 787.781 592.545 792.448C592.405 797.104 592.222 801.698 592.004 806.24C591.931 807.937 591.462 809.625 590.587 811.302C589.488 813.583 587.946 814.755 585.962 814.823C584.056 814.963 582.483 813.969 581.233 811.844C580.066 810.094 579.405 808.375 579.254 806.677C577.863 795.167 577.014 784.573 576.712 774.906C576.42 765.229 576.681 755.948 577.504 747.073C577.571 745.531 577.972 743.922 578.712 742.24C579.879 739.229 581.816 737.25 584.525 736.302C585.551 736.01 586.545 735.865 587.504 735.865C589.264 735.865 590.952 736.338 592.566 737.281C594.91 738.604 596.889 740.292 598.504 742.344C600.337 744.693 602.17 747.073 604.004 749.49C605.837 751.906 607.629 754.292 609.379 756.635C610.405 757.958 611.41 759.276 612.4 760.594C613.4 761.917 614.41 763.234 615.441 764.552C617.202 766.901 618.962 769.213 620.712 771.49C622.472 773.771 624.238 776.083 626.004 778.427L631.379 785.344L634.254 784.24L634.358 782.26C634.426 781.833 634.462 781.396 634.462 780.948C634.462 780.505 634.493 780.068 634.566 779.635C634.566 777.943 634.597 776.255 634.67 774.573C634.754 772.88 634.795 771.193 634.795 769.51C634.931 765.333 635.077 761.115 635.233 756.865C635.384 752.615 635.53 748.359 635.67 744.094C635.889 740.875 636.587 737.719 637.754 734.635C638.571 732.667 639.842 731.167 641.566 730.135C643.285 729.109 645.17 728.708 647.212 728.927C649.129 729.151 650.801 729.958 652.233 731.344C653.66 732.734 654.556 734.458 654.92 736.51Z" fill="#3D348B"/>
<path d="M684.3 749.043C684.81 756.809 684.758 764.6 684.133 772.418C683.519 780.225 682.769 787.897 681.883 795.439L681.237 802.043C681.014 803.585 680.425 805.241 679.467 807.001C677.701 810.001 675.352 811.501 672.425 811.501C669.717 811.501 667.592 810.106 666.05 807.314C664.144 803.871 663.081 800.022 662.862 795.772C662.639 792.913 662.529 790.017 662.529 787.085C662.529 784.158 662.56 781.262 662.633 778.397C662.633 777.231 662.633 776.043 662.633 774.835C662.633 773.616 662.633 772.387 662.633 771.147V769.939H662.196C662.279 769.054 662.331 768.147 662.362 767.231C662.404 766.314 662.425 765.418 662.425 764.543C662.56 761.835 662.706 759.106 662.862 756.356C663.014 753.606 663.196 750.835 663.404 748.043C663.706 744.6 664.331 741.413 665.279 738.481C666.014 736.496 667.165 734.939 668.737 733.814C670.321 732.679 672.097 732.142 674.071 732.21C678.404 732.434 681.196 734.559 682.446 738.585C683.389 741.585 684.008 745.074 684.3 749.043Z" fill="#3D348B"/>
<g clip-path="url(#clip2_39_1662)">
<path d="M251.967 938.353C248.519 938.92 245.306 938.629 242.321 937.478C239.332 936.337 236.66 934.545 234.301 932.103C231.926 929.561 230.019 926.837 228.592 923.936C227.16 921.03 226.446 917.457 226.446 913.207C226.363 910.832 226.582 908.457 227.113 906.082C227.639 903.707 228.519 901.415 229.759 899.207C232.452 894.389 236.051 892.801 240.551 894.436C242.676 894.759 243.717 895.988 243.676 898.124C243.634 900.249 243.118 902.618 242.134 905.228C241.644 906.535 241.426 907.988 241.467 909.582C241.509 911.181 241.571 912.67 241.655 914.061C241.821 916.103 242.676 917.712 244.217 918.894C245.769 920.087 247.577 920.811 249.634 921.061C253.394 921.462 257.196 921.457 261.03 921.04C264.873 920.634 268.41 919.9 271.634 918.832C274.868 917.775 277.347 916.592 279.071 915.29C281.113 913.65 282.415 912.28 282.988 911.186C283.571 910.077 282.915 908.952 281.03 907.811C279.889 907.077 278.764 906.551 277.655 906.228C276.556 905.894 275.431 905.436 274.28 904.853C272.972 904.118 271.847 903.306 270.905 902.415C269.972 901.514 269.342 900.285 269.009 898.728C268.603 896.769 268.827 895.014 269.676 893.457C270.535 891.905 271.785 890.738 273.426 889.957C275.061 889.181 276.905 888.993 278.946 889.394C280.915 889.728 282.926 890.082 284.967 890.457C287.009 890.821 288.847 891.452 290.488 892.353C292.363 893.41 294.509 894.186 296.926 894.686C299.342 895.176 301.327 895.332 302.884 895.165C303.535 895.165 304.103 896.134 304.592 898.061C305.077 899.978 305.321 901.801 305.321 903.519C305.321 905.228 305.077 907.051 304.592 908.978C304.103 910.894 303.535 911.853 302.884 911.853C301.811 911.853 300.722 911.696 299.613 911.374C298.514 911.04 298.009 911.077 298.092 911.478C298.092 914.92 297.415 917.842 296.071 920.249C294.722 922.665 292.998 924.712 290.905 926.394C288.821 928.071 286.676 929.566 284.467 930.874C281.202 932.749 276.91 934.379 271.592 935.769C266.269 937.155 259.728 938.019 251.967 938.353ZM261.78 956.874C260.056 956.874 258.415 956.545 256.863 955.894C255.306 955.238 254.53 954.009 254.53 952.207C254.53 951.467 254.613 950.587 254.78 949.561C254.946 948.545 255.311 947.426 255.884 946.207C256.952 944.9 257.931 943.999 258.821 943.499C259.722 943.009 260.457 942.769 261.03 942.769C261.681 942.769 262.186 942.853 262.551 943.019C262.926 943.186 263.155 943.301 263.238 943.374C265.863 944.691 267.597 946.025 268.446 947.374C269.306 948.717 269.738 949.962 269.738 951.103C269.738 952.655 268.873 954.004 267.155 955.144C265.446 956.295 263.655 956.874 261.78 956.874ZM273.176 955.769C271.051 954.129 270.071 952.29 270.238 950.249C270.405 948.457 271.118 946.842 272.384 945.415C273.644 943.983 275.097 943.342 276.738 943.499C279.446 943.092 281.368 943.379 282.509 944.353C283.644 945.337 284.259 946.525 284.342 947.915C284.426 949.233 284.139 950.587 283.488 951.978C282.832 953.363 281.931 954.545 280.78 955.519C279.639 956.504 278.415 957.082 277.113 957.249C275.806 957.415 274.493 956.92 273.176 955.769Z" fill="#3D348B"/>
<path d="M327.27 857.249C324.572 856.931 322.65 855.79 321.499 853.832C320.358 851.863 319.916 849.894 320.166 847.936C320.4 846.051 321.254 844.332 322.728 842.79C324.197 841.238 326.207 840.702 328.749 841.186C329.733 841.353 330.838 841.889 332.062 842.79C333.28 843.681 334.301 844.764 335.124 846.04C335.942 847.306 336.192 848.676 335.874 850.144C335.541 852.019 334.614 853.697 333.103 855.165C331.588 856.639 329.645 857.332 327.27 857.249ZM301.145 911.853C300.744 911.853 300.364 911.389 299.999 910.457C299.624 909.514 299.312 908.389 299.062 907.082C298.812 905.764 298.687 904.577 298.687 903.519C298.687 901.801 298.957 899.978 299.499 898.061C300.03 896.134 300.577 895.165 301.145 895.165C302.53 895.165 303.963 895.124 305.437 895.04C306.905 894.957 307.77 894.874 308.02 894.79C309.405 894.306 310.405 893.905 311.02 893.582C311.629 893.249 312.218 892.842 312.791 892.353C313.374 891.853 314.233 891.197 315.374 890.374C317.176 889.072 318.384 887.624 318.999 886.04C319.608 884.447 320.134 882.686 320.582 880.769C321.041 878.842 321.838 876.728 322.978 874.436C323.796 871.493 324.572 869.634 325.312 868.853C326.046 868.077 327.275 867.519 328.999 867.186C331.124 866.702 333.166 867.056 335.124 868.249C337.093 869.431 338.483 871.452 339.291 874.311C339.541 875.051 339.624 875.827 339.541 876.644C339.457 877.467 339.541 878.655 339.791 880.207C339.957 881.348 340.02 882.592 339.978 883.936C339.937 885.285 340.114 886.697 340.52 888.165C340.937 889.639 341.879 891.155 343.353 892.707C344.171 893.613 345.317 894.228 346.791 894.561C348.259 894.884 349.608 895.082 350.832 895.165C351.483 895.165 352.051 896.134 352.541 898.061C353.041 899.978 353.291 901.801 353.291 903.519C353.291 904.577 353.166 905.764 352.916 907.082C352.666 908.389 352.353 909.514 351.978 910.457C351.614 911.389 351.233 911.853 350.832 911.853C348.374 911.853 346.9 911.769 346.416 911.603C343.134 911.519 340.15 911.238 337.457 910.749C334.759 910.264 332.426 908.874 330.457 906.582C329.968 906.014 329.478 904.973 328.978 903.457C328.489 901.947 328.088 900.572 327.77 899.332C325.963 900.723 324.062 902.197 322.062 903.749C320.062 905.306 318.114 906.535 316.228 907.436C315.004 908.009 313.796 908.457 312.603 908.79C311.421 909.113 310.134 909.478 308.749 909.894C307.692 910.301 306.608 910.728 305.499 911.186C304.4 911.634 302.947 911.853 301.145 911.853Z" fill="#3D348B"/>
<path d="M380.525 913.686C378.801 914.186 376.88 914.29 374.755 913.999C372.63 913.707 370.827 913.155 369.359 912.353C368.286 911.686 367.197 911.113 366.088 910.624C364.989 910.139 364.031 909.488 363.213 908.665C362.64 908.098 362.213 907.571 361.921 907.082C361.64 906.582 361.176 906.051 360.525 905.478C359.452 907.035 358.036 908.488 356.275 909.832C354.525 911.181 352.135 911.853 349.109 911.853C348.541 911.853 347.994 910.894 347.463 908.978C346.921 907.051 346.65 905.228 346.65 903.519C346.65 902.368 346.775 901.16 347.025 899.894C347.275 898.634 347.588 897.53 347.963 896.582C348.327 895.639 348.708 895.165 349.109 895.165C350.984 895.165 352.452 894.556 353.525 893.332C354.426 892.348 355.182 891.243 355.796 890.019C356.406 888.785 357.119 887.207 357.942 885.29C358.76 883.374 359.781 880.905 361.005 877.874C362.307 875.988 363.51 874.514 364.609 873.457C365.718 872.389 367.135 871.327 368.859 870.269C370.744 869.035 372.364 868.176 373.713 867.686C375.057 867.202 376.593 866.832 378.317 866.582C380.442 866.249 382.682 866.806 385.046 868.249C387.421 869.681 389.426 871.415 391.067 873.457C392.536 875.249 393.39 877.353 393.63 879.769C393.88 882.186 394.327 884.332 394.984 886.207C395.801 888.499 396.13 890.769 395.963 893.019C395.807 895.269 395.281 897.743 394.38 900.436C393.072 904.202 391.359 907.071 389.234 909.04C387.109 910.999 384.202 912.545 380.525 913.686ZM374.255 896.519C374.989 897.176 375.786 897.478 376.65 897.436C377.51 897.394 378.265 897.092 378.921 896.519C379.822 895.868 380.348 895.092 380.505 894.186C380.671 893.285 380.755 892.181 380.755 890.874C380.671 889.973 380.567 888.827 380.442 887.436C380.327 886.051 379.577 885.186 378.192 884.853C377.452 884.618 376.755 884.91 376.088 885.728C375.432 886.551 374.822 887.493 374.255 888.561C373.682 889.618 373.114 890.473 372.546 891.124C372.463 891.207 372.421 891.368 372.421 891.603C372.338 892.759 372.38 893.639 372.546 894.249C372.713 894.863 373.281 895.618 374.255 896.519Z" fill="#3D348B"/>
</g>
<g clip-path="url(#clip3_39_1662)">
<path d="M494.361 875.136C491.33 874.819 489.137 873.511 487.778 871.22C486.429 868.928 485.882 866.636 486.132 864.345C486.382 862.053 487.382 860.032 489.132 858.282C490.892 856.522 493.205 855.923 496.069 856.49C497.221 856.657 498.512 857.256 499.944 858.282C501.372 859.298 502.575 860.563 503.549 862.074C504.533 863.589 504.825 865.168 504.424 866.803C503.924 869.011 502.83 870.98 501.153 872.699C499.486 874.407 497.221 875.22 494.361 875.136ZM457.549 938.324C457.148 938.324 456.767 937.86 456.403 936.928C456.028 935.985 455.715 934.86 455.465 933.553C455.215 932.235 455.09 931.048 455.09 929.99C455.09 928.272 455.361 926.449 455.903 924.532C456.434 922.605 456.981 921.636 457.549 921.636C458.366 921.72 459.575 921.74 461.174 921.699C462.767 921.657 464.403 921.48 466.069 921.157C467.747 920.824 469.08 920.418 470.069 919.928C471.778 918.944 473.408 918.022 474.965 917.157C476.517 916.298 478.075 915.131 479.632 913.657C481.757 911.782 483.986 910.277 486.319 909.136C488.653 907.985 491.163 906.47 493.861 904.595C492.069 903.444 490.596 902.459 489.444 901.636C488.304 900.819 487.158 900.006 486.007 899.199C484.866 898.381 483.392 897.522 481.59 896.615C481.184 896.365 480.288 896.199 478.903 896.115C477.512 896.032 476.569 896.032 476.069 896.115C475.497 896.115 475.049 896.324 474.715 896.74C474.392 897.147 474.028 897.47 473.611 897.72C471.569 899.027 469.788 899.438 468.278 898.949C466.762 898.449 465.309 897.548 463.924 896.24C462.533 894.855 461.799 893.157 461.715 891.157C461.632 889.147 462.325 887.24 463.799 885.449C465.351 883.407 467.174 881.756 469.257 880.49C471.351 879.214 473.58 878.209 475.944 877.47C477.83 876.902 479.653 877.048 481.403 877.907C483.163 878.756 484.866 879.548 486.507 880.282C489.684 881.772 492.424 883.511 494.715 885.511C497.007 887.511 499.34 889.543 501.715 891.595C504.09 893.636 506.929 895.501 510.236 897.178C513.554 898.845 517.83 900.048 523.07 900.782C524.622 900.949 525.991 901.61 527.174 902.761C528.351 903.902 529.111 905.147 529.445 906.49C529.778 907.839 529.45 908.964 528.465 909.865C527.392 910.772 526.596 911.714 526.07 912.699C525.538 913.673 524.929 914.548 524.236 915.324C523.538 916.105 522.413 916.694 520.861 917.095C518.887 917.595 516.799 917.636 514.59 917.22C512.715 916.819 510.851 916.782 509.007 917.115C507.174 917.438 505.392 918.048 503.674 918.949C501.142 920.256 498.59 921.605 496.007 922.99C493.434 924.381 491.007 926.011 488.715 927.886C485.2 930.918 481.351 933.11 477.174 934.47C473.007 935.819 468.757 936.98 464.424 937.949C464.09 938.032 463.429 938.095 462.444 938.136C461.471 938.178 460.512 938.199 459.569 938.199C458.622 938.199 457.95 938.24 457.549 938.324Z" fill="#3D348B"/>
<path d="M422.095 942.011C420.22 942.011 418.22 941.844 416.095 941.511C413.97 941.188 412.127 940.579 410.575 939.678C408.517 938.37 406.996 936.699 406.012 934.657C405.038 932.605 404.429 930.428 404.179 928.136C403.856 925.277 404.351 922.459 405.658 919.678C406.559 917.792 407.825 916.339 409.45 915.324C411.085 914.298 412.809 913.907 414.616 914.157C417.158 914.48 419.08 915.74 420.387 917.949C420.788 918.532 420.908 919.235 420.741 920.053C420.585 920.86 420.554 921.714 420.637 922.615C420.788 924.423 421.293 925.261 422.158 925.136C423.017 925.011 424.226 924.792 425.783 924.469C427.502 924.053 428.627 923.277 429.158 922.136C429.684 920.985 430.481 919.756 431.554 918.449C431.955 918.048 432.095 917.417 431.97 916.553C431.845 915.693 431.783 915.219 431.783 915.136C431.866 913.751 431.7 911.969 431.283 909.803C430.877 907.636 430.309 905.511 429.575 903.428C428.835 901.334 427.939 899.756 426.887 898.699C426.231 898.131 425.455 897.089 424.554 895.574C423.647 894.063 423.08 891.917 422.845 889.136C422.679 887.001 423.002 885.485 423.825 884.594C424.642 883.693 425.908 882.792 427.616 881.886C428.767 881.235 430.101 881.074 431.616 881.407C433.127 881.73 434.58 882.318 435.97 883.178C437.356 884.042 438.502 885.042 439.408 886.178C440.877 887.985 442.387 890.199 443.929 892.824C445.481 895.438 446.184 897.923 446.033 900.282C445.95 902.006 446.272 904.074 447.012 906.49C447.746 908.907 448.767 911.261 450.075 913.553C451.377 915.834 452.851 917.751 454.491 919.303C456.127 920.86 457.726 921.636 459.283 921.636C459.851 921.636 460.293 922.11 460.616 923.053C460.95 924.001 461.21 925.105 461.408 926.365C461.616 927.631 461.72 928.839 461.72 929.99C461.72 931.699 461.476 933.521 460.991 935.449C460.502 937.365 459.934 938.324 459.283 938.324C458.21 938.324 457.08 938.23 455.887 938.032C454.705 937.824 453.913 937.678 453.512 937.594C452.439 937.344 451.559 937.042 450.866 936.678C450.168 936.303 449.252 935.584 448.116 934.511C447.043 933.459 446.205 932.542 445.595 931.761C444.981 930.985 444.595 930.553 444.429 930.469C444.345 930.386 444.179 930.574 443.929 931.032C443.689 931.48 443.205 932.027 442.47 932.678C439.929 935.136 436.814 937.282 433.137 939.115C429.455 940.959 425.772 941.928 422.095 942.011Z" fill="#3D348B"/>
</g>
<defs>
<clipPath id="clip0_39_1662">
<rect width="736" height="686.099" fill="white" transform="translate(10 10.5054)"/>
</clipPath>
<clipPath id="clip1_39_1662">
<rect width="736" height="390.495" fill="white" transform="translate(10 10.5054)"/>
</clipPath>
<clipPath id="clip2_39_1662">
<rect width="169.576" height="116.267" fill="white" transform="translate(226.429 841.014)"/>
</clipPath>
<clipPath id="clip3_39_1662">
<rect width="125.487" height="85.7281" fill="white" transform="translate(404.083 856.283)"/>
</clipPath>
</defs>
</svg>
