<svg width="788" height="761" viewBox="0 0 788 761" fill="none" xmlns="http://www.w3.org/2000/svg">
<g opacity="0.8">
<path d="M417.355 675.751C398.679 711.647 347.321 711.647 328.645 675.751L51.6224 143.328C34.3035 110.042 58.4558 70.25 95.9777 70.25L650.022 70.25C687.544 70.2501 711.696 110.042 694.378 143.328L417.355 675.751Z" fill="#D9D9D9"/>
<path d="M417.355 675.751C398.679 711.647 347.321 711.647 328.645 675.751L51.6224 143.328C34.3035 110.042 58.4558 70.25 95.9777 70.25L650.022 70.25C687.544 70.2501 711.696 110.042 694.378 143.328L417.355 675.751Z" stroke="#3D348B"/>
</g>
<mask id="mask0_113_2302" style="mask-type:luminance" maskUnits="userSpaceOnUse" x="284" y="320" width="177" height="172">
<path d="M284.019 320.078H460.026V492H284.019V320.078Z" fill="white"/>
</mask>
<g mask="url(#mask0_113_2302)">
<mask id="mask1_113_2302" style="mask-type:luminance" maskUnits="userSpaceOnUse" x="284" y="320" width="176" height="172">
<path d="M412.467 367.089C416.906 381.325 421.585 395.494 425.572 409.853C426.425 412.926 425.788 417.315 424.032 419.966C409.22 442.262 394.012 464.293 378.876 486.381C374.075 493.387 371.103 493.472 366.443 486.713C351.033 464.279 335.57 441.878 320.434 419.263C318.894 416.964 318.497 413.05 319.277 410.347C323.156 396.862 327.634 383.557 331.872 370.157C332.308 368.756 332.563 367.317 331.69 364.908C326.707 369.193 321.611 373.354 316.79 377.795C311.263 382.906 305.01 385.172 297.594 382.745C285.088 378.641 280.521 365.032 289.075 355.009C304.431 337.012 324.603 326.215 347.953 320.933C349.238 320.634 351.249 321.071 352.196 321.935C357.198 326.391 362.108 330.941 366.679 335.786C367.694 336.874 367.62 339.42 367.258 341.12C364.393 354.834 361.132 368.49 358.523 382.256C357.993 384.996 358.9 388.63 360.514 390.962C363.888 395.826 368.165 400.092 372.697 405.341C377.518 399.655 382.285 394.492 386.38 388.872C387.523 387.31 387.018 384.274 386.562 382.047C383.717 368.314 380.509 354.677 377.861 340.911C377.444 338.684 378.842 335.786 380.201 333.696C381.471 331.73 384.261 330.713 385.586 328.78C392.128 319.28 400.412 320.667 409.711 324.215C426.823 330.727 442.085 339.771 454.45 353.076C461.9 361.085 461.753 371.915 454.195 379.045C446.961 385.856 436.45 385.224 428.039 377.762C423.414 373.653 418.377 369.948 413.517 366.067C413.046 365.911 412.595 365.768 412.124 365.611C412.232 366.105 412.32 366.595 412.428 367.089" fill="white"/>
</mask>
<g mask="url(#mask1_113_2302)">
<path d="M201.25 190.526H543.785V500.474H201.25V190.526Z" fill="#3D348B"/>
</g>
</g>
<mask id="mask2_113_2302" style="mask-type:luminance" maskUnits="userSpaceOnUse" x="238" y="199" width="269" height="103">
<path d="M238.82 199H506.252V301.486H238.82V199Z" fill="white"/>
</mask>
<g mask="url(#mask2_113_2302)">
<mask id="mask3_113_2302" style="mask-type:luminance" maskUnits="userSpaceOnUse" x="239" y="199" width="267" height="102">
<path d="M273.852 300.778C264.225 292.019 252.37 289.207 239.589 288.96C255.813 241.773 304.304 202.605 363.271 199.531C427.691 196.159 483.181 231.309 505.658 288.979C492.642 289.226 480.586 291.948 470.871 300.973C451.62 259.557 419.462 236.453 372.732 235.365C339.994 234.61 296.035 250.67 273.832 300.759" fill="white"/>
</mask>
<g mask="url(#mask3_113_2302)">
<path d="M201.25 190.525H543.786V500.473H201.25V190.525Z" fill="#E6AF2E"/>
</g>
</g>
<mask id="mask4_113_2302" style="mask-type:luminance" maskUnits="userSpaceOnUse" x="405" y="369" width="123" height="103">
<path d="M405.807 369.714H527.532V471.416H405.807V369.714Z" fill="white"/>
</mask>
<g mask="url(#mask4_113_2302)">
<mask id="mask5_113_2302" style="mask-type:luminance" maskUnits="userSpaceOnUse" x="405" y="370" width="123" height="101">
<path d="M405.813 469.681C416.254 454.424 426.514 439.048 437.353 424.052C438.913 421.896 443.136 421.155 446.294 420.509C451.008 419.54 454.107 417.626 456.206 413.028C461.881 400.649 468.026 388.465 474.461 376.443C475.604 374.301 478.973 373.142 481.494 371.878C482.602 371.313 484.27 371.945 485.501 371.508C497.973 367.1 505.08 372.947 510.931 382.955C519.872 398.212 526.233 414.168 527.336 431.776C528.062 443.328 521.392 451.232 510.862 452.001C500.675 452.757 492.46 445.541 490.758 434.64C489.724 427.985 488.292 421.383 486.825 413.574C459.541 433.182 433.332 452.02 407.102 470.859C406.686 470.469 406.269 470.085 405.852 469.7" fill="white"/>
</mask>
<g mask="url(#mask5_113_2302)">
<path d="M201.251 190.523H543.786V500.471H201.251V190.523Z" fill="#E6AF2E"/>
</g>
</g>
<mask id="mask6_113_2302" style="mask-type:luminance" maskUnits="userSpaceOnUse" x="216" y="369" width="125" height="104">
<path d="M216.253 369.714H340.013V472.628H216.253V369.714Z" fill="white"/>
</mask>
<g mask="url(#mask6_113_2302)">
<mask id="mask7_113_2302" style="mask-type:luminance" maskUnits="userSpaceOnUse" x="217" y="370" width="123" height="103">
<path d="M339.525 472.158C312.933 452.953 286.34 433.744 258.336 413.523C256.702 421.404 255.015 427.849 254.113 434.395C252.627 445.23 244.74 452.16 233.97 451.495C224.058 450.882 216.535 442.346 217.457 431.868C219.414 409.714 227.501 389.802 242.239 372.635C243.416 371.263 245.991 370.317 247.874 370.389C253.73 370.56 259.66 370.949 265.383 372.07C267.487 372.474 269.827 374.792 270.876 376.811C277.007 388.505 283.025 400.247 288.518 412.222C290.764 417.138 293.682 420.088 299.249 420.473C304.561 420.843 308.038 423.546 310.922 427.954C319.259 440.717 328.107 453.162 336.626 465.821C337.892 467.697 338.49 469.982 339.397 472.072L339.525 472.158Z" fill="white"/>
</mask>
<g mask="url(#mask7_113_2302)">
<path d="M201.252 190.524H543.787V500.472H201.252V190.524Z" fill="#E6AF2E"/>
</g>
</g>
<mask id="mask8_113_2302" style="mask-type:luminance" maskUnits="userSpaceOnUse" x="339" y="253" width="67" height="66">
<path d="M339.263 253.481H405.807V318.509H339.263V253.481Z" fill="white"/>
</mask>
<g mask="url(#mask8_113_2302)">
<mask id="mask9_113_2302" style="mask-type:luminance" maskUnits="userSpaceOnUse" x="339" y="253" width="67" height="65">
<path d="M339.615 285.73C339.703 268.245 354.858 253.392 372.294 253.677C390.857 253.971 405.414 268.297 405.213 286.067C405.017 303.324 390.171 317.859 372.931 317.664C354.226 317.455 339.522 303.376 339.615 285.716" fill="white"/>
</mask>
<g mask="url(#mask9_113_2302)">
<path d="M201.25 190.524H543.785V500.472H201.25V190.524Z" fill="#3D348B"/>
</g>
</g>
<mask id="mask10_113_2302" style="mask-type:luminance" maskUnits="userSpaceOnUse" x="468" y="301" width="68" height="65">
<path d="M468.775 301.485H535.03V365.934H468.775V301.485Z" fill="white"/>
</mask>
<g mask="url(#mask10_113_2302)">
<mask id="mask11_113_2302" style="mask-type:luminance" maskUnits="userSpaceOnUse" x="468" y="301" width="67" height="65">
<path d="M501.468 301.813C519.958 301.78 534.48 315.331 534.75 332.907C535.02 350.391 520.395 365.102 502.611 365.188C484.101 365.297 468.932 351.109 468.878 333.624C468.804 316.101 483.415 301.832 501.468 301.794" fill="white"/>
</mask>
<g mask="url(#mask11_113_2302)">
<path d="M201.249 190.524H543.784V500.472H201.249V190.524Z" fill="#3D348B"/>
</g>
</g>
<mask id="mask12_113_2302" style="mask-type:luminance" maskUnits="userSpaceOnUse" x="210" y="301" width="67" height="65">
<path d="M210 301.485H276.26V365.934H210V301.485Z" fill="white"/>
</mask>
<g mask="url(#mask12_113_2302)">
<mask id="mask13_113_2302" style="mask-type:luminance" maskUnits="userSpaceOnUse" x="210" y="301" width="66" height="65">
<path d="M210.312 333.135C210.386 315.612 224.903 301.795 243.285 301.78C261.339 301.761 275.876 316.016 275.787 333.624C275.699 351.461 261.358 365.35 243.138 365.207C224.162 365.084 210.239 351.48 210.312 333.135Z" fill="white"/>
</mask>
<g mask="url(#mask13_113_2302)">
<path d="M201.249 190.525H543.784V500.473H201.249V190.525Z" fill="#3D348B"/>
</g>
</g>
</svg>
