<svg width="467" height="605" viewBox="0 0 467 605" fill="none" xmlns="http://www.w3.org/2000/svg">
<mask id="mask0_113_2134" style="mask-type:luminance" maskUnits="userSpaceOnUse" x="107" y="180" width="253" height="255">
<path d="M107.062 180.656H359.329V434.606H107.062V180.656Z" fill="white"/>
</mask>
<g mask="url(#mask0_113_2134)">
<mask id="mask1_113_2134" style="mask-type:luminance" maskUnits="userSpaceOnUse" x="107" y="180" width="253" height="255">
<path d="M290.989 249.388C297.379 270.548 304.113 291.605 309.851 312.946C311.078 317.514 310.165 324.036 307.633 327.977C286.318 361.113 264.425 393.858 242.641 426.683C235.726 437.093 231.445 437.222 224.741 427.179C202.563 393.832 180.306 360.541 158.519 326.932C156.301 323.514 155.729 317.696 156.85 313.677C162.433 293.641 168.879 273.863 174.984 253.953C175.609 251.868 175.976 249.726 174.723 246.152C167.547 252.519 160.215 258.704 153.276 265.305C145.316 272.898 136.315 276.263 125.644 272.66C107.642 266.555 101.064 246.334 113.38 231.435C135.479 204.693 164.522 188.647 198.127 180.793C199.978 180.35 202.874 181.001 204.233 182.28C211.432 188.908 218.503 195.665 225.078 202.865C226.543 204.484 226.437 208.266 225.914 210.798C221.792 231.174 217.095 251.474 213.34 271.93C212.583 276.002 213.885 281.404 216.209 284.871C221.062 292.101 227.22 298.441 233.742 306.242C240.684 297.79 247.543 290.117 253.441 281.767C255.087 279.447 254.356 274.931 253.702 271.619C249.606 251.213 244.988 230.94 241.18 210.484C240.578 207.172 242.588 202.865 244.545 199.761C246.37 196.839 250.389 195.325 252.293 192.455C261.711 178.34 273.638 180.4 287.023 185.672C311.653 195.351 333.622 208.788 351.417 228.566C362.14 240.463 361.932 256.562 351.053 267.156C340.64 277.281 325.507 276.339 313.402 265.252C306.747 259.147 299.495 253.639 292.5 247.874C291.822 247.64 291.171 247.431 290.494 247.197C290.649 247.927 290.778 248.658 290.936 249.388" fill="white"/>
</mask>
<g mask="url(#mask1_113_2134)">
<path d="M107.062 180.654V434.604H359.329V180.654H107.062Z" fill="url(#paint0_linear_113_2134)"/>
</g>
</g>
<mask id="mask2_113_2134" style="mask-type:luminance" maskUnits="userSpaceOnUse" x="41" y="0" width="385" height="152">
<path d="M41.415 0H425.61V151.478H41.415V0Z" fill="white"/>
</mask>
<g mask="url(#mask2_113_2134)">
<mask id="mask3_113_2134" style="mask-type:luminance" maskUnits="userSpaceOnUse" x="42" y="0" width="384" height="152">
<path d="M91.4669 150.842C77.613 137.824 60.5459 133.649 42.1533 133.282C65.5044 63.1496 135.3 4.93715 220.179 0.372053C312.909 -4.63931 392.777 47.5965 425.129 133.309C406.396 133.676 389.044 137.718 375.058 151.129C347.35 89.5782 301.061 55.2425 233.798 53.626C186.676 52.5021 123.403 76.3755 91.4405 150.819" fill="white"/>
</mask>
<g mask="url(#mask3_113_2134)">
<path d="M-13.0293 -13.0088H480.008V447.64H-13.0293V-13.0088Z" fill="#E6AF2E"/>
</g>
</g>
<mask id="mask4_113_2134" style="mask-type:luminance" maskUnits="userSpaceOnUse" x="280" y="253" width="177" height="151">
<path d="M280.902 253.299H456.614V403.659H280.902V253.299Z" fill="white"/>
</mask>
<g mask="url(#mask4_113_2134)">
<mask id="mask5_113_2134" style="mask-type:luminance" maskUnits="userSpaceOnUse" x="281" y="253" width="176" height="151">
<path d="M281.414 401.877C296.442 379.204 311.211 356.348 326.814 334.065C329.058 330.855 335.137 329.761 339.676 328.796C346.459 327.358 350.922 324.515 353.95 317.679C362.115 299.283 370.961 281.178 380.223 263.304C381.866 260.121 386.719 258.399 390.348 256.521C391.938 255.685 394.338 256.624 396.113 255.972C414.063 249.424 424.294 258.111 432.72 272.983C445.582 295.657 454.742 319.375 456.332 345.545C457.377 362.715 447.774 374.457 432.614 375.604C417.954 376.724 406.133 366.001 403.68 349.8C402.192 339.909 400.133 330.098 398.017 318.489C358.75 347.631 321.022 375.63 283.265 403.626C282.667 403.05 282.065 402.479 281.467 401.903" fill="white"/>
</mask>
<g mask="url(#mask5_113_2134)">
<path d="M-13.0332 -13.0088H480.004V447.64H-13.0332V-13.0088Z" fill="#E6AF2E"/>
</g>
</g>
<mask id="mask6_113_2134" style="mask-type:luminance" maskUnits="userSpaceOnUse" x="10" y="253" width="177" height="154">
<path d="M10.1055 253.875H186.124V406.199H10.1055V253.875Z" fill="white"/>
</mask>
<g mask="url(#mask6_113_2134)">
<mask id="mask7_113_2134" style="mask-type:luminance" maskUnits="userSpaceOnUse" x="10" y="254" width="176" height="152">
<path d="M185.998 405.556C147.719 377.011 109.443 348.467 69.1302 318.409C66.7832 330.124 64.3569 339.701 63.0512 349.432C60.9124 365.531 49.5608 375.838 34.0639 374.846C19.7902 373.934 8.96418 361.253 10.293 345.674C13.1128 312.746 24.7486 283.161 45.961 257.641C47.6568 255.605 51.3624 254.197 54.0763 254.302C62.5024 254.564 71.0343 255.135 79.2819 256.805C82.3065 257.406 85.6717 260.851 87.1857 263.852C96.0051 281.227 104.669 298.684 112.573 316.478C115.809 323.784 120.011 328.167 128.02 328.742C135.666 329.291 140.674 333.307 144.823 339.856C156.826 358.827 169.559 377.325 181.823 396.138C183.648 398.928 184.51 402.319 185.813 405.427L185.998 405.556Z" fill="white"/>
</mask>
<g mask="url(#mask7_113_2134)">
<path d="M-13.0332 -13.0078H480.004V447.641H-13.0332V-13.0078Z" fill="#E6AF2E"/>
</g>
</g>
<mask id="mask8_113_2134" style="mask-type:luminance" maskUnits="userSpaceOnUse" x="186" y="80" width="95" height="96">
<path d="M186.121 80.8271H280.544V175.94H186.121V80.8271Z" fill="white"/>
</mask>
<g mask="url(#mask8_113_2134)">
<mask id="mask9_113_2134" style="mask-type:luminance" maskUnits="userSpaceOnUse" x="186" y="80" width="95" height="96">
<path d="M186.126 128.475C186.258 102.486 208.068 80.4145 233.168 80.831C259.888 81.274 280.839 102.566 280.551 128.971C280.264 154.62 258.896 176.222 234.084 175.938C207.156 175.624 185.997 154.699 186.126 128.449" fill="white"/>
</mask>
<g mask="url(#mask9_113_2134)">
<path d="M186.115 80.8252V175.939H280.544V80.8252H186.115Z" fill="url(#paint1_linear_113_2134)"/>
</g>
</g>
<mask id="mask10_113_2134" style="mask-type:luminance" maskUnits="userSpaceOnUse" x="372" y="152" width="96" height="95">
<path d="M372.175 152.354H467.001V246.571H372.175V152.354Z" fill="white"/>
</mask>
<g mask="url(#mask10_113_2134)">
<mask id="mask11_113_2134" style="mask-type:luminance" maskUnits="userSpaceOnUse" x="372" y="152" width="96" height="95">
<path d="M419.104 152.38C445.717 152.327 466.616 172.472 467.009 198.59C467.399 224.575 446.342 246.442 420.746 246.571C394.106 246.73 372.269 225.646 372.19 199.657C372.084 173.619 393.115 152.406 419.104 152.354" fill="white"/>
</mask>
<g mask="url(#mask11_113_2134)">
<path d="M372.179 152.354V246.571H467.004V152.354H372.179Z" fill="url(#paint2_linear_113_2134)"/>
</g>
</g>
<mask id="mask12_113_2134" style="mask-type:luminance" maskUnits="userSpaceOnUse" x="0" y="152" width="95" height="95">
<path d="M0 152.324H94.244V246.598H0V152.324Z" fill="white"/>
</mask>
<g mask="url(#mask12_113_2134)">
<mask id="mask13_113_2134" style="mask-type:luminance" maskUnits="userSpaceOnUse" x="0" y="152" width="95" height="95">
<path d="M0.00918031 198.926C0.114961 172.887 21.0133 152.353 47.4716 152.326C73.4573 152.3 94.3854 173.489 94.2531 199.656C94.1242 226.168 73.4838 246.805 47.2634 246.597C19.9455 246.415 -0.0932949 226.194 0.00918031 198.926Z" fill="white"/>
</mask>
<g mask="url(#mask13_113_2134)">
<path d="M-0.000976562 152.326V246.6H94.243V152.326H-0.000976562Z" fill="url(#paint3_linear_113_2134)"/>
</g>
</g>
<path d="M78.3462 498.672C79.7379 499.836 80.6205 501.178 80.9907 502.692C81.361 504.199 81.1527 505.607 80.3693 506.91C79.5759 508.305 78.4189 509.178 76.905 509.528C75.3976 509.882 73.7348 509.706 71.92 508.999C68.4293 507.564 65.0774 504.979 61.8709 501.251L59.7024 498.738C58.5388 497.39 57.3752 496.034 56.2116 494.666C55.048 493.291 53.8844 491.929 52.7209 490.58C52.6316 490.441 52.539 490.299 52.4432 490.157C52.344 490.018 52.2515 489.853 52.1655 489.668C52.0663 489.44 51.9738 489.278 51.8878 489.178L51.4647 488.478L49.8648 489.602V493.026C49.8648 494.375 49.8648 495.704 49.8648 497.006C49.8648 498.302 49.8648 499.624 49.8648 500.973V501.396C49.8648 501.951 49.8516 502.546 49.8251 503.181C49.7987 503.809 49.7392 504.398 49.6532 504.953C49.4152 506.169 48.8995 507.174 48.1062 507.968C47.3194 508.754 46.3674 509.194 45.2501 509.29C44.1394 509.422 43.1014 509.211 42.1428 508.655C41.1908 508.1 40.5296 507.313 40.1594 506.288C39.2239 503.908 38.7578 501.766 38.7578 499.862C38.7578 494.372 38.7909 488.858 38.8636 483.321C38.933 477.787 39.0157 472.316 39.1148 466.912V466.211C39.1148 465.146 39.3462 463.936 39.8156 462.588C40.4569 460.588 41.6668 459.609 43.4386 459.652C45.2534 459.699 46.3674 460.654 46.7839 462.522C47.0649 463.632 47.2996 464.763 47.4847 465.907C47.6698 467.044 47.8318 468.194 47.974 469.358L48.2516 471.037C48.3475 471.639 48.4301 472.227 48.5029 472.809C48.5723 473.391 48.6285 474.009 48.6747 474.66C48.7706 475.315 48.84 475.943 48.8863 476.551L49.0185 477.873L50.5524 476.762C50.8333 476.571 51.0449 476.405 51.187 476.273L69.1301 460.075C69.216 459.98 69.4011 459.837 69.6854 459.652L69.8177 459.586C71.2622 458.654 72.6605 458.211 74.0092 458.264C75.3579 458.31 76.4488 458.866 77.2884 459.93C78.1776 461.051 78.495 462.297 78.2404 463.672C77.9826 465.041 77.2256 466.26 75.9662 467.335C74.5712 468.498 73.1398 469.662 71.6688 470.825C70.2044 471.989 68.7499 473.153 67.3054 474.316C66.5649 474.872 65.8178 475.44 65.0707 476.022C64.3303 476.604 63.5898 477.199 62.8494 477.807C62.337 478.177 61.8477 478.574 61.3816 478.997C60.9122 479.414 60.423 479.83 59.9139 480.253L57.8116 481.985L58.9355 483.043C59.1206 483.185 59.2826 483.327 59.4247 483.466C59.5635 483.598 59.7057 483.714 59.8478 483.81C60.8164 484.597 61.7783 485.377 62.7304 486.15C63.689 486.917 64.6609 487.694 65.6393 488.478C67.7814 490.154 69.9102 491.843 72.0258 493.542C74.1414 495.244 76.2471 496.953 78.3462 498.672Z" fill="#E0E2DB"/>
<path d="M130.977 504.542C131.063 506.492 130.924 508.238 130.554 509.778C130.042 511.91 128.693 513.117 126.508 513.401C124.319 513.682 122.713 512.846 121.682 510.889C120.756 509.117 120.22 507.395 120.082 505.719C119.94 504 119.834 502.261 119.764 500.496C119.692 498.724 119.635 496.979 119.592 495.26C119.592 494.652 119.579 494.037 119.553 493.409C119.533 492.774 119.5 492.133 119.447 491.478C119.447 491.207 119.447 490.906 119.447 490.579C119.447 490.255 119.447 489.951 119.447 489.667V487.987H95.6463V489.733C95.6463 490.06 95.6463 490.364 95.6463 490.645C95.6463 490.929 95.6463 491.207 95.6463 491.478V496.371C95.6992 497.765 95.7257 499.17 95.7257 500.589C95.7257 502.01 95.7257 503.441 95.7257 504.886V505.097C95.7686 505.567 95.7785 506.02 95.7521 506.459C95.7323 506.902 95.6992 507.355 95.6463 507.821C95.5141 509.259 95.0844 510.41 94.3637 511.272C93.6398 512.135 92.7175 512.568 91.6002 512.568C91.6002 512.568 91.587 512.568 91.5605 512.568C91.5407 512.568 91.5341 512.568 91.5341 512.568C90.3705 512.568 89.4053 512.148 88.6383 511.312C87.8714 510.476 87.4384 509.382 87.3425 508.033C86.926 500.998 86.5558 494.542 86.2318 488.662C85.9046 482.774 85.6236 477.178 85.3856 471.869C85.3393 470.567 85.4319 469.231 85.6633 467.863C85.9013 466.487 86.1327 465.218 86.3641 464.055C86.6021 462.848 87.1111 461.896 87.8979 461.198C88.6912 460.494 89.6234 460.19 90.7011 460.286C91.7225 460.332 92.5688 460.716 93.2398 461.436C93.9175 462.16 94.3505 463.149 94.5356 464.398C94.6745 465.661 94.7902 466.957 94.8794 468.286C94.9753 469.608 95.0678 470.917 95.1571 472.213C95.21 472.778 95.243 473.337 95.2629 473.892C95.2893 474.447 95.3224 475.009 95.3686 475.571L95.5802 478.573H119.381L119.526 474.871C119.612 473.753 119.678 472.672 119.725 471.631C119.778 470.583 119.847 469.522 119.936 468.444C119.989 467.519 120.049 466.56 120.121 465.562C120.191 464.557 120.293 463.545 120.425 462.521C120.617 461.542 120.944 460.61 121.404 459.718C121.685 459.208 122.105 458.732 122.66 458.289C123.222 457.85 124.015 457.678 125.04 457.774C126.617 457.959 127.595 458.799 127.976 460.286C128.432 462.051 128.709 463.982 128.809 466.078C129.222 473.059 129.615 479.73 129.985 486.083C130.362 492.43 130.693 498.585 130.977 504.542Z" fill="#E0E2DB"/>
<path d="M185.97 499.447C186.023 499.775 186.092 500.079 186.182 500.36C186.135 502.079 185.752 503.52 185.031 504.684C184.307 505.847 183.299 506.614 182.003 506.984C180.698 507.407 179.438 507.364 178.222 506.852C177.012 506.343 176.04 505.477 175.299 504.26C174.506 502.912 173.832 501.239 173.276 499.236C173.091 498.495 172.764 497.828 172.298 497.226C171.828 496.618 170.992 496.287 169.786 496.234C168.437 496.191 167.082 496.148 165.726 496.102C164.378 496.059 163.029 496.01 161.68 495.957C159.915 495.871 158.127 495.791 156.312 495.719C154.494 495.649 152.679 495.593 150.864 495.547C150.395 495.547 149.886 495.745 149.33 496.142C148.775 496.532 148.355 496.935 148.074 497.358C147.704 498.013 147.34 498.677 146.99 499.355C146.646 500.026 146.309 500.687 145.985 501.338C145.658 501.993 145.317 502.667 144.967 503.361C144.613 504.059 144.23 504.733 143.816 505.384C142.183 508.224 140.207 509.133 137.88 508.108C136.954 507.738 136.2 506.994 135.618 505.874C135.037 504.756 134.974 503.451 135.433 501.96C137.063 496.892 139.162 491.144 141.727 484.717C143.347 480.628 145.393 476.024 147.863 470.9C148.557 469.455 149.337 467.931 150.203 466.325C151.066 464.722 152.008 463.151 153.033 461.618C154.097 460.084 155.654 458.735 157.7 457.572C159.241 456.639 160.708 456.17 162.103 456.17C164.569 456.17 166.619 457.545 168.252 460.295C171.458 465.789 174.599 471.502 177.666 477.432C180.741 483.365 183.233 489.61 185.137 496.168C185.322 496.776 185.484 497.358 185.626 497.914C185.765 498.469 185.881 498.981 185.97 499.447ZM154.99 483.739H168.04L160.569 468.454L154.99 483.739Z" fill="#E0E2DB"/>
<path d="M225.974 464.888C228.387 467.262 230.258 470.055 231.58 473.272C232.909 476.481 233.577 479.853 233.577 483.387C233.577 490.977 230.575 496.98 224.572 501.396C216.893 507.029 208.47 510.053 199.304 510.467C197.162 510.566 195.066 510.01 193.023 508.801C191.717 508.096 190.901 507.049 190.577 505.654C190.108 504.024 190.412 502.328 191.489 500.563C192.369 499.118 192.831 497.608 192.878 496.028C192.931 493.092 192.977 490.163 193.023 487.235C193.066 484.299 193.109 481.344 193.155 478.362C193.208 476.362 193.241 474.352 193.261 472.333C193.288 470.306 193.321 468.293 193.367 466.29C193.367 464.888 193.492 463.798 193.75 463.011C194.005 462.217 194.468 461.589 195.139 461.12C195.816 460.654 196.808 460.214 198.114 459.798C199.135 459.474 200.206 459.183 201.327 458.925C202.444 458.67 203.538 458.423 204.606 458.185C204.976 458.099 205.347 458.019 205.717 457.947C206.094 457.877 206.47 457.794 206.841 457.695L206.907 458.118H207.541C211.075 457.98 214.434 458.489 217.617 459.652C220.807 460.816 223.594 462.561 225.974 464.888ZM215.779 490.646C217.409 489.668 218.678 488.332 219.587 486.64C220.493 484.94 220.923 483.109 220.87 481.152C220.87 479.109 220.381 477.225 219.402 475.506C218.43 473.781 217.105 472.405 215.422 471.381C213.984 470.501 212.464 469.91 210.86 469.609C209.254 469.301 207.66 469.054 206.074 468.868C205.747 468.825 205.419 468.782 205.095 468.736C204.768 468.683 204.421 468.637 204.051 468.591L203.138 468.445L204.474 496.583L205.518 496.028C206.117 495.704 206.708 495.4 207.29 495.115C207.872 494.834 208.444 494.557 209.009 494.282C210.216 493.72 211.376 493.145 212.487 492.563C213.604 491.981 214.702 491.343 215.779 490.646Z" fill="#E0E2DB"/>
<path d="M288.644 499.447C288.697 499.775 288.766 500.079 288.855 500.36C288.809 502.079 288.426 503.52 287.705 504.684C286.981 505.847 285.973 506.614 284.677 506.984C283.371 507.407 282.112 507.364 280.895 506.852C279.686 506.343 278.714 505.477 277.973 504.26C277.18 502.912 276.506 501.239 275.95 499.236C275.765 498.495 275.438 497.828 274.972 497.226C274.502 496.618 273.666 496.287 272.459 496.234C271.111 496.191 269.755 496.148 268.4 496.102C267.051 496.059 265.703 496.01 264.354 495.957C262.589 495.871 260.8 495.791 258.986 495.719C257.168 495.649 255.353 495.593 253.538 495.547C253.069 495.547 252.559 495.745 252.004 496.142C251.449 496.532 251.029 496.935 250.748 497.358C250.378 498.013 250.014 498.677 249.664 499.355C249.32 500.026 248.983 500.687 248.659 501.338C248.332 501.993 247.991 502.667 247.641 503.361C247.287 504.059 246.903 504.733 246.49 505.384C244.857 508.224 242.881 509.133 240.553 508.108C239.628 507.738 238.874 506.994 238.292 505.874C237.71 504.756 237.648 503.451 238.107 501.96C239.737 496.892 241.836 491.144 244.401 484.717C246.021 480.628 248.067 476.024 250.536 470.9C251.231 469.455 252.011 467.931 252.877 466.325C253.74 464.722 254.682 463.151 255.706 461.618C256.771 460.084 258.328 458.735 260.374 457.572C261.914 456.639 263.382 456.17 264.777 456.17C267.243 456.17 269.293 457.545 270.926 460.295C274.132 465.789 277.272 471.502 280.34 477.432C283.414 483.365 285.907 489.61 287.811 496.168C287.996 496.776 288.158 497.358 288.3 497.914C288.439 498.469 288.555 498.981 288.644 499.447ZM257.663 483.739H270.714L263.243 468.454L257.663 483.739Z" fill="#E0E2DB"/>
<path d="M355.242 495.956C355.381 498.426 355.149 500.964 354.541 503.572C354.171 504.967 353.53 506.058 352.624 506.852C351.715 507.645 350.631 508.065 349.371 508.108C348.26 508.154 347.166 507.827 346.092 507.129C345.024 506.435 344.35 505.341 344.069 503.85C343.143 499.338 342.489 494.079 342.112 488.076C341.98 486.446 341.92 484.816 341.94 483.183C341.967 481.554 341.98 479.95 341.98 478.37C341.98 477.63 341.986 476.876 342.006 476.109C342.033 475.336 342.046 474.575 342.046 473.835C342.046 473.412 342.009 472.972 341.94 472.513C341.867 472.047 341.719 471.557 341.491 471.045L340.79 469.577L339.811 471.6C339.722 471.832 339.629 472.063 339.534 472.301C339.444 472.532 339.352 472.761 339.256 472.989C338.929 473.924 338.601 474.846 338.277 475.752C337.95 476.661 337.623 477.583 337.299 478.516C336.744 480.096 336.195 481.676 335.659 483.263C335.121 484.843 334.552 486.396 333.954 487.93L333.888 488.208C333.56 489.1 333.22 490 332.869 490.905C332.516 491.814 332.109 492.687 331.653 493.523C330.304 495.755 328.532 496.915 326.337 497.001C324.202 497.1 322.39 496.125 320.903 494.079C320.063 492.961 319.329 491.775 318.695 490.522C318.067 489.262 317.478 487.98 316.923 486.674C316.268 485.282 315.627 483.868 314.992 482.43C314.364 480.985 313.753 479.54 313.155 478.093C312.87 477.398 312.566 476.688 312.242 475.964C311.915 475.243 311.611 474.509 311.33 473.769C311.198 473.445 311.003 473.094 310.748 472.724C310.49 472.347 310.153 471.951 309.73 471.534L308.685 470.622L308.262 473.346C308.216 473.815 308.16 474.294 308.09 474.787C308.018 475.273 307.961 475.746 307.918 476.202C307.733 477.974 307.542 479.732 307.35 481.478C307.165 483.223 306.98 484.978 306.794 486.74C306.563 489.209 306.322 491.669 306.067 494.118C305.809 496.561 305.542 499.011 305.261 501.47C305.214 502.31 305.132 503.136 305.009 503.956C304.894 504.769 304.722 505.549 304.494 506.296C304.123 507.734 303.4 508.871 302.325 509.708C301.257 510.547 300.051 510.941 298.702 510.898C297.307 510.855 296.111 510.356 295.106 509.404C294.107 508.445 293.512 507.268 293.321 505.873C292.95 502.991 292.95 500.359 293.321 497.979C294.993 487.702 296.881 477.233 298.98 466.576C299.446 464.11 300.305 461.71 301.558 459.383C302.722 457.34 304.259 456.153 306.173 455.826C306.444 455.783 306.722 455.76 307.006 455.76C308.54 455.76 309.981 456.365 311.33 457.571C313.472 459.528 315.726 462.318 318.1 465.941C318.847 467.062 319.548 468.238 320.202 469.471C320.853 470.708 321.528 471.951 322.225 473.2C322.506 473.808 322.797 474.403 323.098 474.985C323.395 475.567 323.709 476.162 324.037 476.77L324.804 478.159L325.438 476.691C325.666 476.136 325.888 475.58 326.099 475.025C326.311 474.463 326.529 473.901 326.761 473.346C327.227 472.086 327.689 470.873 328.149 469.709C328.615 468.546 329.108 467.382 329.63 466.219C330.784 463.663 332.175 461.035 333.808 458.338C334.602 456.989 335.626 455.733 336.889 454.57C339.074 452.57 341.332 451.803 343.659 452.269C345.986 452.728 347.751 454.332 348.961 457.082C351.103 461.783 352.521 467.6 353.219 474.536L353.642 478.793C353.959 481.58 354.257 484.426 354.541 487.335C354.822 490.244 355.057 493.12 355.242 495.956Z" fill="#E0E2DB"/>
<path d="M409.267 460.912C409.548 462.314 409.691 463.805 409.691 465.381L409.545 471.107C409.456 475.523 409.363 480.002 409.267 484.541C409.168 489.083 409.029 493.608 408.844 498.121C408.702 502.96 407.284 506.127 404.587 507.614C401.985 509.062 398.636 508.619 394.537 506.292C392.448 505.076 390.531 503.621 388.786 501.929C387.04 500.23 385.606 498.702 384.488 497.354C383.093 495.767 381.768 494.101 380.508 492.356C379.246 490.61 378.013 488.878 376.806 487.159C376.294 486.465 375.791 485.767 375.299 485.07C374.813 484.376 374.314 483.675 373.804 482.968L373.527 482.478C373.243 482.108 372.938 481.725 372.614 481.328C372.297 480.931 371.877 480.548 371.358 480.178L370.181 479.278V481.513C370.181 481.787 370.181 482.052 370.181 482.306C370.181 482.564 370.181 482.832 370.181 483.113L369.97 487.648C369.871 490.531 369.775 493.453 369.679 496.415C369.59 499.37 369.474 502.286 369.335 505.168C369.289 506.246 368.991 507.317 368.436 508.381C367.739 509.829 366.76 510.573 365.501 510.616C364.291 510.705 363.293 510.074 362.499 508.725C361.759 507.614 361.339 506.524 361.243 505.446C360.36 498.14 359.822 491.417 359.63 485.281C359.445 479.14 359.61 473.249 360.132 467.616C360.175 466.638 360.43 465.616 360.899 464.548C361.64 462.638 362.869 461.382 364.588 460.78C365.24 460.595 365.871 460.502 366.479 460.502C367.596 460.502 368.668 460.803 369.692 461.401C371.18 462.241 372.436 463.312 373.461 464.615C374.624 466.105 375.788 467.616 376.951 469.15C378.115 470.684 379.252 472.198 380.363 473.685C381.014 474.525 381.652 475.361 382.28 476.198C382.915 477.037 383.556 477.874 384.211 478.71C385.328 480.201 386.445 481.668 387.556 483.113C388.673 484.561 389.794 486.029 390.914 487.516L394.326 491.906L396.151 491.205L396.217 489.949C396.26 489.678 396.283 489.4 396.283 489.116C396.283 488.835 396.303 488.557 396.349 488.283C396.349 487.209 396.369 486.138 396.415 485.07C396.468 483.996 396.494 482.925 396.494 481.857C396.58 479.206 396.673 476.528 396.772 473.831C396.868 471.133 396.961 468.433 397.05 465.725C397.189 463.682 397.632 461.679 398.372 459.722C398.891 458.473 399.698 457.521 400.792 456.866C401.883 456.215 403.079 455.96 404.375 456.099C405.592 456.241 406.653 456.754 407.562 457.633C408.467 458.516 409.036 459.61 409.267 460.912Z" fill="#E0E2DB"/>
<path d="M427.969 469.504C428.293 474.433 428.26 479.378 427.863 484.34C427.473 489.295 426.997 494.164 426.435 498.951L426.025 503.142C425.883 504.121 425.509 505.172 424.901 506.289C423.78 508.193 422.29 509.145 420.432 509.145C418.713 509.145 417.364 508.259 416.386 506.487C415.176 504.302 414.501 501.86 414.363 499.162C414.22 497.347 414.151 495.509 414.151 493.648C414.151 491.791 414.171 489.953 414.217 488.134C414.217 487.394 414.217 486.64 414.217 485.873C414.217 485.1 414.217 484.32 414.217 483.533V482.766H413.939C413.992 482.204 414.025 481.629 414.045 481.047C414.072 480.465 414.085 479.897 414.085 479.341C414.171 477.623 414.263 475.89 414.363 474.145C414.458 472.4 414.574 470.641 414.706 468.869C414.898 466.684 415.295 464.661 415.896 462.8C416.362 461.541 417.093 460.552 418.091 459.838C419.096 459.118 420.223 458.777 421.476 458.82C424.227 458.962 425.998 460.311 426.792 462.866C427.39 464.77 427.783 466.985 427.969 469.504Z" fill="#E0E2DB"/>
<path d="M153.123 592.033C150.934 592.394 148.895 592.208 147.001 591.478C145.103 590.754 143.407 589.617 141.91 588.066C140.403 586.453 139.193 584.724 138.287 582.883C137.378 581.039 136.925 578.771 136.925 576.074C136.872 574.566 137.011 573.059 137.348 571.551C137.682 570.044 138.241 568.59 139.027 567.188C140.736 564.13 143.021 563.122 145.877 564.16C147.225 564.365 147.887 565.145 147.86 566.5C147.834 567.849 147.506 569.353 146.882 571.009C146.571 571.839 146.432 572.761 146.458 573.773C146.485 574.788 146.525 575.733 146.577 576.616C146.683 577.912 147.225 578.933 148.204 579.683C149.189 580.44 150.336 580.9 151.642 581.058C154.028 581.313 156.442 581.31 158.874 581.045C161.314 580.787 163.559 580.321 165.605 579.644C167.658 578.973 169.231 578.222 170.325 577.396C171.621 576.355 172.447 575.485 172.811 574.791C173.181 574.087 172.765 573.373 171.568 572.649C170.844 572.183 170.13 571.849 169.426 571.644C168.729 571.432 168.015 571.142 167.284 570.771C166.454 570.305 165.74 569.79 165.142 569.224C164.55 568.652 164.15 567.872 163.939 566.884C163.681 565.641 163.823 564.527 164.362 563.539C164.907 562.553 165.701 561.813 166.742 561.317C167.78 560.825 168.95 560.706 170.246 560.96C171.495 561.172 172.771 561.397 174.067 561.635C175.363 561.866 176.53 562.266 177.571 562.838C178.761 563.509 180.123 564.001 181.657 564.319C183.191 564.629 184.45 564.729 185.439 564.623C185.852 564.623 186.212 565.238 186.523 566.461C186.83 567.677 186.986 568.834 186.986 569.925C186.986 571.009 186.83 572.166 186.523 573.389C186.212 574.606 185.852 575.214 185.439 575.214C184.758 575.214 184.067 575.115 183.363 574.91C182.665 574.698 182.345 574.722 182.397 574.976C182.397 577.161 181.968 579.016 181.115 580.543C180.259 582.077 179.165 583.376 177.836 584.443C176.513 585.508 175.151 586.457 173.75 587.286C171.677 588.476 168.953 589.511 165.578 590.394C162.2 591.273 158.048 591.822 153.123 592.033ZM159.35 603.788C158.256 603.788 157.215 603.58 156.23 603.167C155.242 602.75 154.749 601.97 154.749 600.826C154.749 600.357 154.802 599.798 154.908 599.147C155.013 598.502 155.245 597.792 155.608 597.018C156.286 596.188 156.908 595.617 157.473 595.299C158.045 594.988 158.511 594.836 158.874 594.836C159.288 594.836 159.608 594.889 159.84 594.995C160.078 595.101 160.223 595.174 160.276 595.22C161.942 596.056 163.043 596.902 163.582 597.759C164.127 598.611 164.402 599.402 164.402 600.125C164.402 601.111 163.853 601.967 162.762 602.691C161.678 603.421 160.541 603.788 159.35 603.788ZM166.583 603.087C165.235 602.046 164.613 600.879 164.719 599.583C164.825 598.446 165.278 597.421 166.081 596.516C166.881 595.607 167.803 595.2 168.844 595.299C170.563 595.041 171.783 595.223 172.507 595.841C173.228 596.466 173.618 597.22 173.671 598.102C173.723 598.939 173.542 599.798 173.128 600.681C172.712 601.56 172.14 602.31 171.409 602.929C170.686 603.553 169.909 603.92 169.082 604.026C168.253 604.132 167.42 603.818 166.583 603.087Z" fill="#E0E2DB"/>
<path d="M200.914 540.548C199.202 540.347 197.982 539.623 197.251 538.38C196.527 537.13 196.246 535.881 196.405 534.638C196.554 533.441 197.096 532.35 198.031 531.372C198.964 530.387 200.239 530.046 201.853 530.354C202.477 530.459 203.178 530.8 203.955 531.372C204.729 531.937 205.376 532.625 205.899 533.434C206.418 534.238 206.576 535.107 206.375 536.039C206.163 537.229 205.575 538.294 204.616 539.226C203.654 540.161 202.421 540.601 200.914 540.548ZM184.333 575.205C184.078 575.205 183.837 574.91 183.605 574.319C183.367 573.72 183.169 573.006 183.01 572.177C182.852 571.34 182.772 570.587 182.772 569.916C182.772 568.825 182.944 567.668 183.288 566.451C183.625 565.228 183.972 564.613 184.333 564.613C185.212 564.613 186.121 564.587 187.057 564.534C187.989 564.481 188.538 564.428 188.696 564.375C189.575 564.068 190.21 563.813 190.6 563.608C190.987 563.397 191.361 563.139 191.724 562.828C192.094 562.511 192.64 562.094 193.364 561.572C194.508 560.746 195.274 559.827 195.664 558.822C196.051 557.81 196.385 556.693 196.669 555.476C196.96 554.253 197.466 552.911 198.19 551.457C198.709 549.589 199.202 548.409 199.671 547.913C200.137 547.421 200.917 547.067 202.011 546.855C203.36 546.548 204.656 546.773 205.899 547.53C207.148 548.28 208.031 549.563 208.543 551.377C208.702 551.847 208.755 552.339 208.702 552.858C208.649 553.381 208.702 554.134 208.861 555.119C208.966 555.843 209.006 556.633 208.98 557.486C208.953 558.342 209.066 559.238 209.323 560.171C209.588 561.106 210.186 562.068 211.122 563.053C211.641 563.628 212.368 564.018 213.303 564.23C214.236 564.435 215.092 564.56 215.869 564.613C216.282 564.613 216.642 565.228 216.953 566.451C217.27 567.668 217.429 568.825 217.429 569.916C217.429 570.587 217.35 571.34 217.191 572.177C217.032 573.006 216.834 573.72 216.596 574.319C216.364 574.91 216.123 575.205 215.869 575.205C214.308 575.205 213.373 575.152 213.065 575.046C210.983 574.993 209.089 574.815 207.38 574.504C205.667 574.196 204.186 573.314 202.937 571.859C202.626 571.499 202.315 570.838 201.998 569.876C201.687 568.917 201.433 568.045 201.231 567.258C200.084 568.14 198.878 569.076 197.608 570.061C196.339 571.049 195.103 571.83 193.906 572.401C193.129 572.765 192.362 573.049 191.605 573.261C190.855 573.466 190.038 573.697 189.159 573.962C188.488 574.22 187.8 574.491 187.096 574.781C186.399 575.066 185.476 575.205 184.333 575.205Z" fill="#E0E2DB"/>
<path d="M234.714 576.374C233.62 576.691 232.4 576.757 231.051 576.572C229.702 576.387 228.559 576.036 227.626 575.527C226.946 575.104 226.255 574.741 225.551 574.43C224.853 574.122 224.245 573.709 223.726 573.187C223.362 572.827 223.091 572.493 222.906 572.182C222.728 571.865 222.433 571.528 222.02 571.164C221.339 572.152 220.44 573.075 219.323 573.927C218.212 574.784 216.695 575.21 214.774 575.21C214.414 575.21 214.067 574.602 213.73 573.385C213.386 572.162 213.214 571.005 213.214 569.921C213.214 569.19 213.293 568.424 213.452 567.62C213.611 566.82 213.809 566.12 214.047 565.518C214.278 564.92 214.52 564.619 214.774 564.619C215.964 564.619 216.896 564.232 217.577 563.455C218.149 562.83 218.629 562.13 219.019 561.353C219.405 560.569 219.858 559.568 220.381 558.351C220.899 557.135 221.547 555.568 222.324 553.644C223.151 552.447 223.914 551.512 224.612 550.841C225.316 550.163 226.215 549.489 227.309 548.818C228.506 548.034 229.534 547.489 230.39 547.178C231.243 546.871 232.218 546.636 233.312 546.477C234.661 546.266 236.082 546.62 237.583 547.535C239.09 548.444 240.363 549.545 241.404 550.841C242.337 551.978 242.879 553.313 243.031 554.847C243.189 556.381 243.474 557.743 243.89 558.933C244.409 560.388 244.617 561.829 244.512 563.257C244.413 564.685 244.079 566.255 243.507 567.964C242.677 570.354 241.59 572.175 240.241 573.425C238.892 574.668 237.048 575.65 234.714 576.374ZM230.734 565.478C231.2 565.895 231.706 566.086 232.254 566.06C232.8 566.034 233.279 565.842 233.696 565.478C234.268 565.065 234.601 564.572 234.701 563.997C234.806 563.425 234.859 562.725 234.859 561.895C234.806 561.323 234.74 560.596 234.661 559.713C234.588 558.834 234.112 558.285 233.233 558.074C232.763 557.925 232.32 558.11 231.897 558.629C231.481 559.151 231.094 559.75 230.734 560.427C230.37 561.098 230.01 561.64 229.65 562.054C229.597 562.106 229.57 562.209 229.57 562.358C229.517 563.092 229.544 563.65 229.65 564.037C229.755 564.427 230.116 564.906 230.734 565.478Z" fill="#E0E2DB"/>
<path d="M261.1 577.552C259.91 577.552 258.641 577.446 257.292 577.235C255.943 577.03 254.773 576.643 253.788 576.071C252.482 575.241 251.517 574.18 250.892 572.884C250.274 571.582 249.887 570.2 249.729 568.746C249.524 566.931 249.838 565.143 250.667 563.377C251.239 562.181 252.043 561.258 253.074 560.614C254.112 559.963 255.206 559.715 256.353 559.873C257.966 560.078 259.186 560.878 260.016 562.28C260.27 562.65 260.346 563.096 260.241 563.615C260.141 564.128 260.122 564.67 260.175 565.242C260.27 566.389 260.591 566.921 261.14 566.842C261.685 566.762 262.452 566.624 263.441 566.419C264.531 566.154 265.245 565.662 265.583 564.938C265.916 564.207 266.422 563.427 267.103 562.597C267.358 562.343 267.447 561.943 267.368 561.394C267.288 560.849 267.249 560.548 267.249 560.495C267.302 559.616 267.196 558.485 266.931 557.11C266.673 555.735 266.313 554.386 265.847 553.064C265.378 551.735 264.809 550.733 264.141 550.062C263.725 549.702 263.232 549.041 262.66 548.079C262.085 547.12 261.725 545.758 261.576 543.993C261.47 542.638 261.675 541.676 262.198 541.111C262.717 540.539 263.52 539.967 264.604 539.392C265.335 538.978 266.181 538.876 267.143 539.087C268.101 539.292 269.024 539.666 269.906 540.211C270.786 540.76 271.513 541.395 272.088 542.115C273.02 543.263 273.979 544.667 274.957 546.333C275.942 547.993 276.389 549.57 276.293 551.067C276.24 552.161 276.445 553.474 276.914 555.007C277.38 556.541 278.028 558.035 278.858 559.49C279.684 560.938 280.62 562.154 281.661 563.139C282.699 564.128 283.714 564.62 284.702 564.62C285.063 564.62 285.344 564.921 285.549 565.519C285.76 566.121 285.926 566.822 286.051 567.622C286.183 568.425 286.249 569.192 286.249 569.923C286.249 571.007 286.094 572.164 285.787 573.387C285.476 574.603 285.116 575.212 284.702 575.212C284.021 575.212 283.304 575.152 282.547 575.026C281.797 574.894 281.294 574.802 281.04 574.749C280.359 574.59 279.8 574.398 279.361 574.167C278.918 573.929 278.336 573.473 277.615 572.792C276.934 572.124 276.402 571.542 276.015 571.046C275.625 570.554 275.381 570.28 275.275 570.227C275.222 570.174 275.116 570.293 274.957 570.584C274.805 570.868 274.498 571.215 274.032 571.628C272.419 573.189 270.442 574.55 268.108 575.714C265.771 576.884 263.434 577.499 261.1 577.552Z" fill="#E0E2DB"/>
<path d="M306.966 535.101C305.042 534.899 303.65 534.069 302.787 532.615C301.931 531.16 301.584 529.706 301.743 528.251C301.901 526.797 302.536 525.514 303.647 524.403C304.764 523.286 306.232 522.906 308.05 523.266C308.78 523.372 309.6 523.752 310.509 524.403C311.415 525.048 312.179 525.851 312.797 526.81C313.422 527.772 313.607 528.774 313.352 529.811C313.035 531.213 312.341 532.463 311.276 533.553C310.218 534.638 308.78 535.153 306.966 535.101ZM283.601 575.205C283.347 575.205 283.105 574.91 282.874 574.319C282.636 573.72 282.438 573.006 282.279 572.177C282.12 571.34 282.041 570.587 282.041 569.916C282.041 568.825 282.213 567.668 282.557 566.451C282.894 565.228 283.241 564.613 283.601 564.613C284.12 564.666 284.887 564.679 285.902 564.653C286.914 564.627 287.952 564.514 289.009 564.309C290.074 564.098 290.92 563.84 291.548 563.529C292.632 562.904 293.667 562.319 294.655 561.77C295.64 561.225 296.629 560.485 297.617 559.549C298.966 558.359 300.381 557.404 301.862 556.68C303.343 555.949 304.936 554.987 306.648 553.797C305.511 553.067 304.576 552.442 303.845 551.92C303.121 551.401 302.394 550.885 301.663 550.373C300.939 549.854 300.004 549.308 298.86 548.733C298.602 548.574 298.034 548.469 297.154 548.416C296.272 548.363 295.673 548.363 295.356 548.416C294.993 548.416 294.708 548.548 294.497 548.812C294.292 549.07 294.06 549.275 293.796 549.434C292.5 550.264 291.37 550.525 290.411 550.214C289.449 549.897 288.527 549.325 287.647 548.495C286.765 547.616 286.299 546.538 286.246 545.269C286.193 543.993 286.633 542.783 287.568 541.646C288.553 540.35 289.71 539.302 291.032 538.499C292.361 537.689 293.776 537.051 295.277 536.581C296.473 536.221 297.63 536.314 298.741 536.859C299.858 537.398 300.939 537.9 301.981 538.367C303.997 539.312 305.736 540.416 307.19 541.685C308.645 542.955 310.126 544.244 311.633 545.546C313.141 546.842 314.942 548.026 317.041 549.09C319.147 550.148 321.861 550.911 325.186 551.378C326.171 551.483 327.041 551.903 327.791 552.634C328.538 553.358 329.021 554.148 329.232 555.001C329.444 555.857 329.236 556.571 328.611 557.143C327.93 557.718 327.424 558.316 327.09 558.941C326.753 559.559 326.366 560.114 325.927 560.607C325.484 561.103 324.77 561.476 323.785 561.731C322.532 562.048 321.206 562.075 319.805 561.81C318.615 561.556 317.431 561.532 316.261 561.744C315.097 561.949 313.967 562.336 312.876 562.908C311.27 563.737 309.65 564.593 308.01 565.473C306.377 566.355 304.837 567.39 303.382 568.58C301.151 570.504 298.708 571.896 296.057 572.758C293.412 573.615 290.715 574.352 287.965 574.967C287.753 575.02 287.333 575.059 286.709 575.086C286.09 575.112 285.482 575.125 284.884 575.125C284.282 575.125 283.856 575.152 283.601 575.205Z" fill="#E0E2DB"/>
<defs>
<linearGradient id="paint0_linear_113_2134" x1="107.063" y1="307.628" x2="359.328" y2="307.628" gradientUnits="userSpaceOnUse">
<stop stop-color="#E0E2DB"/>
<stop offset="0.015625" stop-color="#E0E2DB"/>
<stop offset="0.03125" stop-color="#DFE1DA"/>
<stop offset="0.046875" stop-color="#DFE0D9"/>
<stop offset="0.0625" stop-color="#DEE0D8"/>
<stop offset="0.078125" stop-color="#DEDFD7"/>
<stop offset="0.09375" stop-color="#DDDED6"/>
<stop offset="0.109375" stop-color="#DCDED5"/>
<stop offset="0.125" stop-color="#DCDDD5"/>
<stop offset="0.140625" stop-color="#DBDCD4"/>
<stop offset="0.15625" stop-color="#DBDCD3"/>
<stop offset="0.171875" stop-color="#DADBD2"/>
<stop offset="0.1875" stop-color="#DADAD1"/>
<stop offset="0.203125" stop-color="#D9DAD0"/>
<stop offset="0.21875" stop-color="#D9D9CF"/>
<stop offset="0.234375" stop-color="#D8D8CF"/>
<stop offset="0.25" stop-color="#D8D8CE"/>
<stop offset="0.265625" stop-color="#D7D7CD"/>
<stop offset="0.28125" stop-color="#D7D6CC"/>
<stop offset="0.296875" stop-color="#D6D6CB"/>
<stop offset="0.3125" stop-color="#D6D5CA"/>
<stop offset="0.328125" stop-color="#D5D4C9"/>
<stop offset="0.34375" stop-color="#D4D4C9"/>
<stop offset="0.359375" stop-color="#D4D3C8"/>
<stop offset="0.375" stop-color="#D3D2C7"/>
<stop offset="0.390625" stop-color="#D3D2C6"/>
<stop offset="0.40625" stop-color="#D2D1C5"/>
<stop offset="0.421875" stop-color="#D2D0C4"/>
<stop offset="0.4375" stop-color="#D1D0C3"/>
<stop offset="0.453125" stop-color="#D1CFC3"/>
<stop offset="0.46875" stop-color="#D0CEC2"/>
<stop offset="0.484375" stop-color="#D0CEC1"/>
<stop offset="0.5" stop-color="#CFCDC0"/>
<stop offset="0.515625" stop-color="#CFCCBF"/>
<stop offset="0.53125" stop-color="#CECCBE"/>
<stop offset="0.546875" stop-color="#CECBBD"/>
<stop offset="0.5625" stop-color="#CDCABC"/>
<stop offset="0.578125" stop-color="#CDC9BC"/>
<stop offset="0.59375" stop-color="#CCC9BB"/>
<stop offset="0.609375" stop-color="#CBC8BA"/>
<stop offset="0.625" stop-color="#CBC7B9"/>
<stop offset="0.640625" stop-color="#CAC7B8"/>
<stop offset="0.65625" stop-color="#CAC6B7"/>
<stop offset="0.671875" stop-color="#C9C5B6"/>
<stop offset="0.6875" stop-color="#C9C5B6"/>
<stop offset="0.703125" stop-color="#C8C4B5"/>
<stop offset="0.71875" stop-color="#C8C3B4"/>
<stop offset="0.734375" stop-color="#C7C3B3"/>
<stop offset="0.75" stop-color="#C7C2B2"/>
<stop offset="0.765625" stop-color="#C6C1B1"/>
<stop offset="0.78125" stop-color="#C6C1B0"/>
<stop offset="0.796875" stop-color="#C5C0B0"/>
<stop offset="0.8125" stop-color="#C5BFAF"/>
<stop offset="0.828125" stop-color="#C4BFAE"/>
<stop offset="0.84375" stop-color="#C4BEAD"/>
<stop offset="0.859375" stop-color="#C3BDAC"/>
<stop offset="0.875" stop-color="#C2BDAB"/>
<stop offset="0.890625" stop-color="#C2BCAA"/>
<stop offset="0.90625" stop-color="#C1BBAA"/>
<stop offset="0.921875" stop-color="#C1BBA9"/>
<stop offset="0.9375" stop-color="#C0BAA8"/>
<stop offset="0.953125" stop-color="#C0B9A7"/>
<stop offset="0.96875" stop-color="#BFB9A6"/>
<stop offset="0.984375" stop-color="#BFB8A5"/>
<stop offset="1" stop-color="#BEB7A4"/>
</linearGradient>
<linearGradient id="paint1_linear_113_2134" x1="186.114" y1="128.383" x2="280.543" y2="128.383" gradientUnits="userSpaceOnUse">
<stop stop-color="#E0E2DB"/>
<stop offset="0.015625" stop-color="#E0E2DB"/>
<stop offset="0.03125" stop-color="#DFE1DA"/>
<stop offset="0.046875" stop-color="#DFE0D9"/>
<stop offset="0.0625" stop-color="#DEE0D8"/>
<stop offset="0.078125" stop-color="#DEDFD7"/>
<stop offset="0.09375" stop-color="#DDDED6"/>
<stop offset="0.109375" stop-color="#DCDED5"/>
<stop offset="0.125" stop-color="#DCDDD5"/>
<stop offset="0.140625" stop-color="#DBDCD4"/>
<stop offset="0.15625" stop-color="#DBDCD3"/>
<stop offset="0.171875" stop-color="#DADBD2"/>
<stop offset="0.1875" stop-color="#DADAD1"/>
<stop offset="0.203125" stop-color="#D9DAD0"/>
<stop offset="0.21875" stop-color="#D9D9CF"/>
<stop offset="0.234375" stop-color="#D8D8CF"/>
<stop offset="0.25" stop-color="#D8D8CE"/>
<stop offset="0.265625" stop-color="#D7D7CD"/>
<stop offset="0.28125" stop-color="#D7D6CC"/>
<stop offset="0.296875" stop-color="#D6D6CB"/>
<stop offset="0.3125" stop-color="#D6D5CA"/>
<stop offset="0.328125" stop-color="#D5D4C9"/>
<stop offset="0.34375" stop-color="#D4D4C9"/>
<stop offset="0.359375" stop-color="#D4D3C8"/>
<stop offset="0.375" stop-color="#D3D2C7"/>
<stop offset="0.390625" stop-color="#D3D2C6"/>
<stop offset="0.40625" stop-color="#D2D1C5"/>
<stop offset="0.421875" stop-color="#D2D0C4"/>
<stop offset="0.4375" stop-color="#D1D0C3"/>
<stop offset="0.453125" stop-color="#D1CFC3"/>
<stop offset="0.46875" stop-color="#D0CEC2"/>
<stop offset="0.484375" stop-color="#D0CEC1"/>
<stop offset="0.5" stop-color="#CFCDC0"/>
<stop offset="0.515625" stop-color="#CFCCBF"/>
<stop offset="0.53125" stop-color="#CECCBE"/>
<stop offset="0.546875" stop-color="#CECBBD"/>
<stop offset="0.5625" stop-color="#CDCABC"/>
<stop offset="0.578125" stop-color="#CDC9BC"/>
<stop offset="0.59375" stop-color="#CCC9BB"/>
<stop offset="0.609375" stop-color="#CBC8BA"/>
<stop offset="0.625" stop-color="#CBC7B9"/>
<stop offset="0.640625" stop-color="#CAC7B8"/>
<stop offset="0.65625" stop-color="#CAC6B7"/>
<stop offset="0.671875" stop-color="#C9C5B6"/>
<stop offset="0.6875" stop-color="#C9C5B6"/>
<stop offset="0.703125" stop-color="#C8C4B5"/>
<stop offset="0.71875" stop-color="#C8C3B4"/>
<stop offset="0.734375" stop-color="#C7C3B3"/>
<stop offset="0.75" stop-color="#C7C2B2"/>
<stop offset="0.765625" stop-color="#C6C1B1"/>
<stop offset="0.78125" stop-color="#C6C1B0"/>
<stop offset="0.796875" stop-color="#C5C0B0"/>
<stop offset="0.8125" stop-color="#C5BFAF"/>
<stop offset="0.828125" stop-color="#C4BFAE"/>
<stop offset="0.84375" stop-color="#C4BEAD"/>
<stop offset="0.859375" stop-color="#C3BDAC"/>
<stop offset="0.875" stop-color="#C2BDAB"/>
<stop offset="0.890625" stop-color="#C2BCAA"/>
<stop offset="0.90625" stop-color="#C1BBAA"/>
<stop offset="0.921875" stop-color="#C1BBA9"/>
<stop offset="0.9375" stop-color="#C0BAA8"/>
<stop offset="0.953125" stop-color="#C0B9A7"/>
<stop offset="0.96875" stop-color="#BFB9A6"/>
<stop offset="0.984375" stop-color="#BFB8A5"/>
<stop offset="1" stop-color="#BEB7A4"/>
</linearGradient>
<linearGradient id="paint2_linear_113_2134" x1="372.18" y1="199.464" x2="467.004" y2="199.464" gradientUnits="userSpaceOnUse">
<stop stop-color="#E0E2DB"/>
<stop offset="0.015625" stop-color="#E0E2DB"/>
<stop offset="0.03125" stop-color="#DFE1DA"/>
<stop offset="0.046875" stop-color="#DFE0D9"/>
<stop offset="0.0625" stop-color="#DEE0D8"/>
<stop offset="0.078125" stop-color="#DEDFD7"/>
<stop offset="0.09375" stop-color="#DDDED6"/>
<stop offset="0.109375" stop-color="#DCDED5"/>
<stop offset="0.125" stop-color="#DCDDD5"/>
<stop offset="0.140625" stop-color="#DBDCD4"/>
<stop offset="0.15625" stop-color="#DBDCD3"/>
<stop offset="0.171875" stop-color="#DADBD2"/>
<stop offset="0.1875" stop-color="#DADAD1"/>
<stop offset="0.203125" stop-color="#D9DAD0"/>
<stop offset="0.21875" stop-color="#D9D9CF"/>
<stop offset="0.234375" stop-color="#D8D8CF"/>
<stop offset="0.25" stop-color="#D8D8CE"/>
<stop offset="0.265625" stop-color="#D7D7CD"/>
<stop offset="0.28125" stop-color="#D7D6CC"/>
<stop offset="0.296875" stop-color="#D6D6CB"/>
<stop offset="0.3125" stop-color="#D6D5CA"/>
<stop offset="0.328125" stop-color="#D5D4C9"/>
<stop offset="0.34375" stop-color="#D4D4C9"/>
<stop offset="0.359375" stop-color="#D4D3C8"/>
<stop offset="0.375" stop-color="#D3D2C7"/>
<stop offset="0.390625" stop-color="#D3D2C6"/>
<stop offset="0.40625" stop-color="#D2D1C5"/>
<stop offset="0.421875" stop-color="#D2D0C4"/>
<stop offset="0.4375" stop-color="#D1D0C3"/>
<stop offset="0.453125" stop-color="#D1CFC3"/>
<stop offset="0.46875" stop-color="#D0CEC2"/>
<stop offset="0.484375" stop-color="#D0CEC1"/>
<stop offset="0.5" stop-color="#CFCDC0"/>
<stop offset="0.515625" stop-color="#CFCCBF"/>
<stop offset="0.53125" stop-color="#CECCBE"/>
<stop offset="0.546875" stop-color="#CECBBD"/>
<stop offset="0.5625" stop-color="#CDCABC"/>
<stop offset="0.578125" stop-color="#CDC9BC"/>
<stop offset="0.59375" stop-color="#CCC9BB"/>
<stop offset="0.609375" stop-color="#CBC8BA"/>
<stop offset="0.625" stop-color="#CBC7B9"/>
<stop offset="0.640625" stop-color="#CAC7B8"/>
<stop offset="0.65625" stop-color="#CAC6B7"/>
<stop offset="0.671875" stop-color="#C9C5B6"/>
<stop offset="0.6875" stop-color="#C9C5B6"/>
<stop offset="0.703125" stop-color="#C8C4B5"/>
<stop offset="0.71875" stop-color="#C8C3B4"/>
<stop offset="0.734375" stop-color="#C7C3B3"/>
<stop offset="0.75" stop-color="#C7C2B2"/>
<stop offset="0.765625" stop-color="#C6C1B1"/>
<stop offset="0.78125" stop-color="#C6C1B0"/>
<stop offset="0.796875" stop-color="#C5C0B0"/>
<stop offset="0.8125" stop-color="#C5BFAF"/>
<stop offset="0.828125" stop-color="#C4BFAE"/>
<stop offset="0.84375" stop-color="#C4BEAD"/>
<stop offset="0.859375" stop-color="#C3BDAC"/>
<stop offset="0.875" stop-color="#C2BDAB"/>
<stop offset="0.890625" stop-color="#C2BCAA"/>
<stop offset="0.90625" stop-color="#C1BBAA"/>
<stop offset="0.921875" stop-color="#C1BBA9"/>
<stop offset="0.9375" stop-color="#C0BAA8"/>
<stop offset="0.953125" stop-color="#C0B9A7"/>
<stop offset="0.96875" stop-color="#BFB9A6"/>
<stop offset="0.984375" stop-color="#BFB8A5"/>
<stop offset="1" stop-color="#BEB7A4"/>
</linearGradient>
<linearGradient id="paint3_linear_113_2134" x1="-0.00135886" y1="199.463" x2="94.2429" y2="199.463" gradientUnits="userSpaceOnUse">
<stop stop-color="#E0E2DB"/>
<stop offset="0.015625" stop-color="#E0E2DB"/>
<stop offset="0.03125" stop-color="#DFE1DA"/>
<stop offset="0.046875" stop-color="#DFE0D9"/>
<stop offset="0.0625" stop-color="#DEE0D8"/>
<stop offset="0.078125" stop-color="#DEDFD7"/>
<stop offset="0.09375" stop-color="#DDDED6"/>
<stop offset="0.109375" stop-color="#DCDED5"/>
<stop offset="0.125" stop-color="#DCDDD5"/>
<stop offset="0.140625" stop-color="#DBDCD4"/>
<stop offset="0.15625" stop-color="#DBDCD3"/>
<stop offset="0.171875" stop-color="#DADBD2"/>
<stop offset="0.1875" stop-color="#DADAD1"/>
<stop offset="0.203125" stop-color="#D9DAD0"/>
<stop offset="0.21875" stop-color="#D9D9CF"/>
<stop offset="0.234375" stop-color="#D8D8CF"/>
<stop offset="0.25" stop-color="#D8D8CE"/>
<stop offset="0.265625" stop-color="#D7D7CD"/>
<stop offset="0.28125" stop-color="#D7D6CC"/>
<stop offset="0.296875" stop-color="#D6D6CB"/>
<stop offset="0.3125" stop-color="#D6D5CA"/>
<stop offset="0.328125" stop-color="#D5D4C9"/>
<stop offset="0.34375" stop-color="#D4D4C9"/>
<stop offset="0.359375" stop-color="#D4D3C8"/>
<stop offset="0.375" stop-color="#D3D2C7"/>
<stop offset="0.390625" stop-color="#D3D2C6"/>
<stop offset="0.40625" stop-color="#D2D1C5"/>
<stop offset="0.421875" stop-color="#D2D0C4"/>
<stop offset="0.4375" stop-color="#D1D0C3"/>
<stop offset="0.453125" stop-color="#D1CFC3"/>
<stop offset="0.46875" stop-color="#D0CEC2"/>
<stop offset="0.484375" stop-color="#D0CEC1"/>
<stop offset="0.5" stop-color="#CFCDC0"/>
<stop offset="0.515625" stop-color="#CFCCBF"/>
<stop offset="0.53125" stop-color="#CECCBE"/>
<stop offset="0.546875" stop-color="#CECBBD"/>
<stop offset="0.5625" stop-color="#CDCABC"/>
<stop offset="0.578125" stop-color="#CDC9BC"/>
<stop offset="0.59375" stop-color="#CCC9BB"/>
<stop offset="0.609375" stop-color="#CBC8BA"/>
<stop offset="0.625" stop-color="#CBC7B9"/>
<stop offset="0.640625" stop-color="#CAC7B8"/>
<stop offset="0.65625" stop-color="#CAC6B7"/>
<stop offset="0.671875" stop-color="#C9C5B6"/>
<stop offset="0.6875" stop-color="#C9C5B6"/>
<stop offset="0.703125" stop-color="#C8C4B5"/>
<stop offset="0.71875" stop-color="#C8C3B4"/>
<stop offset="0.734375" stop-color="#C7C3B3"/>
<stop offset="0.75" stop-color="#C7C2B2"/>
<stop offset="0.765625" stop-color="#C6C1B1"/>
<stop offset="0.78125" stop-color="#C6C1B0"/>
<stop offset="0.796875" stop-color="#C5C0B0"/>
<stop offset="0.8125" stop-color="#C5BFAF"/>
<stop offset="0.828125" stop-color="#C4BFAE"/>
<stop offset="0.84375" stop-color="#C4BEAD"/>
<stop offset="0.859375" stop-color="#C3BDAC"/>
<stop offset="0.875" stop-color="#C2BDAB"/>
<stop offset="0.890625" stop-color="#C2BCAA"/>
<stop offset="0.90625" stop-color="#C1BBAA"/>
<stop offset="0.921875" stop-color="#C1BBA9"/>
<stop offset="0.9375" stop-color="#C0BAA8"/>
<stop offset="0.953125" stop-color="#C0B9A7"/>
<stop offset="0.96875" stop-color="#BFB9A6"/>
<stop offset="0.984375" stop-color="#BFB8A5"/>
<stop offset="1" stop-color="#BEB7A4"/>
</linearGradient>
</defs>
</svg>
